<svg width="383" height="179" viewBox="0 0 383 179" fill="none" xmlns="http://www.w3.org/2000/svg">
<path d="M19.6543 176.213C18.1243 176.213 15.7529 175.983 12.54 175.524C10.0921 172.924 7.8737 169.405 5.88477 164.968C4.04883 160.378 2.59538 155.559 1.52441 150.51C0.606445 145.308 0.147461 140.183 0.147461 135.134C0.300456 129.932 1.21842 125.342 2.90137 121.364C2.90137 121.211 3.58984 119.375 4.9668 115.856C6.49674 112.338 8.40918 107.901 10.7041 102.546C12.999 97.0381 15.5999 90.9948 18.5068 84.416C21.4137 77.6842 24.3206 71.1055 27.2275 64.6797C30.1344 58.2539 32.8883 52.4401 35.4893 47.2383C38.2432 41.8835 40.6146 37.7526 42.6035 34.8457C43.9805 32.7038 45.2044 30.6383 46.2754 28.6494C47.4993 26.6605 48.6468 24.8245 49.7178 23.1416C51.4007 20.3877 52.9307 17.8633 54.3076 15.5684C55.8376 13.1204 57.444 10.9785 59.127 9.14258C60.9629 7.15365 62.9518 5.4707 65.0938 4.09375C67.2357 2.5638 69.8366 1.26335 72.8965 0.192383C74.7324 0.957357 76.3389 1.79883 77.7158 2.7168C79.0928 3.48177 80.3167 4.47624 81.3877 5.7002L82.0762 8.91309C82.3822 9.98405 82.8411 10.749 83.4531 11.208C84.2181 11.514 84.8301 11.667 85.2891 11.667C87.278 12.126 88.9609 12.6615 90.3379 13.2734C91.8678 13.7324 93.4743 14.0384 95.1572 14.1914C95.7692 15.1094 96.3047 16.0273 96.7637 16.9453C97.3757 17.8633 97.9876 18.7048 98.5996 19.4697C101.66 23.9066 104.184 28.1904 106.173 32.3213C108.162 36.4521 108.162 40.9655 106.173 45.8613L106.402 48.3857C107.167 49.4567 107.55 50.4512 107.55 51.3691C107.55 52.2871 107.397 53.5876 107.091 55.2705C106.938 56.4945 106.785 57.8714 106.632 59.4014C106.632 60.7783 106.861 62.3083 107.32 63.9912L108.927 65.8271C111.375 67.0511 113.746 67.6631 116.041 67.6631C119.101 67.6631 121.855 66.9746 124.303 65.5977C126.751 64.2207 129.046 62.8438 131.188 61.4668C132.87 60.2428 134.4 59.2484 135.777 58.4834C137.307 57.7184 138.761 57.1829 140.138 56.877C143.351 53.8171 146.257 51.1396 148.858 48.8447C151.612 46.3968 154.443 43.9489 157.35 41.501C162.857 37.0641 168.212 32.3213 173.414 27.2725C178.616 22.0706 182.747 15.6449 185.807 7.99512C187.49 6.92415 189.402 6.38867 191.544 6.38867C193.686 6.38867 195.828 6.84766 197.97 7.76562C200.112 8.5306 202.254 9.44857 204.396 10.5195C204.854 10.8255 205.237 11.055 205.543 11.208C206.002 11.361 206.461 11.5905 206.92 11.8965C206.92 13.5794 207.608 15.1094 208.985 16.4863C209.75 17.0983 210.286 17.4808 210.592 17.6338C210.898 17.7868 211.204 17.9398 211.51 18.0928C212.734 18.8577 213.728 19.5462 214.493 20.1582C215.411 20.7702 216.1 21.6117 216.559 22.6826C217.936 26.8135 220.23 30.0264 223.443 32.3213C223.137 34.0042 223.214 35.6872 223.673 37.3701C224.132 38.9001 224.667 40.43 225.279 41.96C225.585 42.5719 225.815 43.1839 225.968 43.7959C226.121 44.2549 226.35 44.8669 226.656 45.6318L221.607 45.1729L222.296 50.2217C222.755 52.8226 222.525 55.7295 221.607 58.9424C220.842 62.1553 219.924 64.6797 218.854 66.5156C219.16 71.1055 219.312 74.7773 219.312 77.5312C219.312 80.1322 219.16 82.5801 218.854 84.875C218.548 87.1699 218.012 89.3883 217.247 91.5303C216.635 93.5192 215.794 95.6611 214.723 97.9561C215.335 109.584 213.958 120.217 210.592 129.855C207.379 139.494 203.86 148.521 200.035 156.936C199.576 158.007 199.117 159.001 198.658 159.919C198.199 160.837 197.817 161.755 197.511 162.673C195.828 163.132 194.298 163.667 192.921 164.279C191.544 164.891 190.243 165.58 189.02 166.345C187.337 167.416 185.654 168.334 183.971 169.099C182.288 169.711 180.528 170.017 178.692 170.017C171.349 164.662 167.524 155.406 167.218 142.248C167.065 129.09 169.895 112.338 175.709 91.9893C176.78 91.2243 177.239 90.0768 177.086 88.5469V86.0225L174.791 85.793C174.026 85.793 173.338 85.8695 172.726 86.0225C172.114 86.1755 171.655 86.8639 171.349 88.0879C166.453 91.6068 161.098 95.2786 155.284 99.1035C149.623 102.775 143.733 106.218 137.613 109.431C131.493 112.491 125.221 115.091 118.795 117.233C112.522 119.222 106.402 120.217 100.436 120.217C85.1361 120.217 73.585 112.414 65.7822 96.8086L63.7168 92.6777L61.4219 96.3496C60.9629 97.1146 60.1214 98.6445 58.8975 100.939C57.8265 103.081 56.679 105.606 55.4551 108.513C54.3841 111.42 53.3896 114.403 52.4717 117.463C51.7067 120.523 51.4772 123.2 51.7832 125.495C49.9473 127.178 48.1113 129.09 46.2754 131.232C44.5924 133.374 43.3685 135.822 42.6035 138.576C42.2975 139.341 42.221 140.106 42.374 140.871C42.527 141.483 42.7565 142.172 43.0625 142.937C42.9095 144.007 42.6035 144.772 42.1445 145.231C41.6855 145.69 41.1501 146.149 40.5381 146.608C39.7731 147.373 39.0081 148.215 38.2432 149.133C37.4782 149.898 36.7897 150.816 36.1777 151.887C35.8717 152.805 35.6423 153.799 35.4893 154.87C35.3363 155.788 35.1833 156.63 35.0303 157.395C35.0303 159.077 34.8008 160.225 34.3418 160.837C32.8118 164.05 31.4349 166.727 30.2109 168.869C29.14 170.858 28.069 172.388 26.998 173.459C25.9271 174.53 24.7796 175.218 23.5557 175.524C22.4847 175.983 21.1842 176.213 19.6543 176.213Z" fill="#1E1E1E"/>
<path d="M246.852 62.1553C240.426 59.5544 235.071 55.8825 230.787 51.1396C226.656 46.3968 223.29 40.8125 220.689 34.3867C222.219 30.2559 224.667 26.8135 228.033 24.0596C231.399 21.1527 235.147 18.7048 239.278 16.7158C243.562 14.7269 248.076 13.1204 252.818 11.8965C257.561 10.6725 262.151 9.60156 266.588 8.68359C267.506 8.98958 267.965 8.98958 267.965 8.68359C267.965 8.3776 268.347 8.5306 269.112 9.14258C274.62 7.45964 280.969 5.85319 288.16 4.32324C295.351 2.6403 303.001 2.02832 311.109 2.4873C312.18 1.87533 313.481 1.56934 315.011 1.56934C316.541 1.41634 318.147 1.33984 319.83 1.33984C321.513 1.33984 323.119 1.33984 324.649 1.33984C326.179 1.18685 327.48 0.880859 328.551 0.421875C329.469 1.49284 330.846 2.18132 332.682 2.4873C334.518 2.6403 336.43 3.40527 338.419 4.78223C339.031 4.93522 339.031 4.70573 338.419 4.09375C337.807 3.32878 337.883 2.79329 338.648 2.4873C340.637 2.4873 342.397 2.94629 343.927 3.86426C345.457 4.78223 346.834 5.85319 348.058 7.07715C349.435 8.14811 350.659 9.14258 351.729 10.0605C352.953 10.9785 354.254 11.4375 355.631 11.4375C357.008 13.1204 358.614 14.7269 360.45 16.2568C362.439 17.6338 364.275 19.0872 365.958 20.6172C367.794 22.1471 369.247 23.8301 370.318 25.666C371.542 27.502 372.154 29.5674 372.154 31.8623C372.001 32.7803 372.307 33.3158 373.072 33.4688C373.837 33.6217 374.373 34.0807 374.679 34.8457C374.832 40.5065 373.914 45.4023 371.925 49.5332C370.089 53.6641 367.717 57.4889 364.811 61.0078C361.904 64.3737 358.767 67.5866 355.401 70.6465C352.188 73.7064 349.205 76.9958 346.451 80.5146C348.287 82.8096 350.353 84.9515 352.647 86.9404C355.095 88.7764 357.543 90.6123 359.991 92.4482C362.439 94.2842 364.734 96.2731 366.876 98.415C369.171 100.404 371.083 102.699 372.613 105.3C373.072 106.218 374.067 106.83 375.597 107.136C376.056 108.972 376.668 110.884 377.433 112.873C378.351 114.709 379.192 116.545 379.957 118.381C380.722 120.064 381.181 121.594 381.334 122.971C381.487 124.348 381.104 125.495 380.187 126.413C381.257 127.025 381.869 128.02 382.022 129.396C382.175 130.62 382.175 131.615 382.022 132.38C378.657 136.511 376.362 139.418 375.138 141.101C373.914 142.784 372.996 144.007 372.384 144.772C371.772 145.537 371.16 146.226 370.548 146.838C369.936 147.45 368.559 148.674 366.417 150.51C358.308 155.406 349.817 159.842 340.943 163.82C332.223 167.645 323.119 170.246 313.634 171.623C312.869 172.694 311.721 173.535 310.191 174.147C308.814 174.912 307.208 175.524 305.372 175.983C303.536 176.442 301.547 176.825 299.405 177.131C297.416 177.437 295.58 177.743 293.897 178.049C293.132 177.743 292.674 177.207 292.521 176.442C292.521 175.83 292.138 175.371 291.373 175.065C291.22 176.901 290.379 177.819 288.849 177.819C287.472 177.972 285.712 177.666 283.57 176.901C281.428 176.136 279.21 175.065 276.915 173.688C274.62 172.312 272.631 171.011 270.948 169.787C270.183 171.164 269.189 172.618 267.965 174.147C266.894 175.677 265.746 176.748 264.522 177.36C262.381 177.054 260.774 176.825 259.703 176.672C258.785 176.519 257.867 176.901 256.949 177.819C255.725 177.207 254.807 176.519 254.195 175.754C253.583 175.142 252.971 174.453 252.359 173.688C251.747 173.076 251.059 172.541 250.294 172.082C249.529 171.47 248.382 170.935 246.852 170.476C247.158 169.711 246.928 168.563 246.163 167.033C245.398 165.35 244.327 164.356 242.95 164.05C243.715 162.826 243.409 161.296 242.032 159.46C240.655 157.471 239.584 155.253 238.819 152.805C238.972 151.734 239.049 150.663 239.049 149.592C239.202 148.368 239.355 147.297 239.508 146.379C239.814 145.308 240.196 144.39 240.655 143.625C241.114 142.86 241.879 142.325 242.95 142.019C242.797 140.03 242.185 138.117 241.114 136.281C242.491 135.21 243.409 133.91 243.868 132.38C244.327 130.697 244.71 129.014 245.016 127.331C245.475 125.648 246.01 124.042 246.622 122.512C247.234 120.829 248.229 119.452 249.605 118.381C249.299 117.922 248.993 117.539 248.688 117.233C248.382 116.927 248.229 116.392 248.229 115.627C250.523 111.802 252.13 108.589 253.048 105.988C253.966 103.234 254.654 100.633 255.113 98.1855C255.725 95.5846 256.337 92.8307 256.949 89.9238C257.561 87.0169 258.785 83.3451 260.621 78.9082C260.468 76.1543 260.774 73.7064 261.539 71.5645C262.304 69.4225 263.069 67.3571 263.834 65.3682C264.752 63.2262 265.44 61.0078 265.899 58.7129C266.358 56.418 266.282 53.7406 265.67 50.6807C263.069 50.9867 261.157 51.9046 259.933 53.4346C258.862 54.9645 258.173 57.0299 257.867 59.6309C256.49 60.8548 254.731 61.4668 252.589 61.4668C250.447 61.3138 248.535 61.5433 246.852 62.1553ZM347.828 106.447C342.014 103.234 336.66 101.322 331.764 100.71C327.021 100.098 322.431 100.174 317.994 100.939C313.71 101.551 309.579 102.469 305.602 103.693C301.624 104.917 297.646 105.835 293.668 106.447C291.679 111.649 289.614 117.386 287.472 123.659C285.33 129.932 283.264 136.052 281.275 142.019C286.783 141.254 291.832 140.106 296.422 138.576C301.012 137.046 305.449 135.363 309.732 133.527C314.016 131.538 318.224 129.626 322.354 127.79C326.485 125.801 330.769 123.965 335.206 122.282C335.665 120.446 336.66 118.993 338.189 117.922C339.719 116.851 341.249 115.856 342.779 114.938C344.309 113.868 345.61 112.72 346.681 111.496C347.752 110.272 348.134 108.589 347.828 106.447ZM331.764 34.6162C322.278 34.3102 312.945 35.1517 303.766 37.1406C294.586 39.1296 286.86 42.0365 280.587 45.8613C283.647 48.4622 286.783 50.7572 289.996 52.7461C293.362 54.735 295.886 57.4124 297.569 60.7783C304.913 57.8714 311.339 54.1995 316.847 49.7627C322.354 45.1729 327.327 40.124 331.764 34.6162Z" fill="#4866F5"/>
</svg>
