<svg width="523" height="500" viewBox="0 0 523 500" fill="none" xmlns="http://www.w3.org/2000/svg">
<g filter="url(#filter0_i_3_8)">
<g clip-path="url(#clip0_3_8)">
<path d="M0 65C0 29.1015 29.1015 0 65 0H458C493.899 0 523 29.1015 523 65V435C523 470.899 493.899 500 458 500H65C29.1015 500 0 470.899 0 435V65Z" fill="#4866F5"/>
<path d="M82.6543 331.213C81.1243 331.213 78.7529 330.983 75.54 330.524C73.0921 327.924 70.8737 324.405 68.8848 319.968C67.0488 315.378 65.5954 310.559 64.5244 305.51C63.6064 300.308 63.1475 295.183 63.1475 290.134C63.3005 284.932 64.2184 280.342 65.9014 276.364C65.9014 276.211 66.5898 274.375 67.9668 270.856C69.4967 267.338 71.4092 262.901 73.7041 257.546C75.999 252.038 78.5999 245.995 81.5068 239.416C84.4137 232.684 87.3206 226.105 90.2275 219.68C93.1344 213.254 95.8883 207.44 98.4893 202.238C101.243 196.883 103.615 192.753 105.604 189.846C106.98 187.704 108.204 185.638 109.275 183.649C110.499 181.66 111.647 179.825 112.718 178.142C114.401 175.388 115.931 172.863 117.308 170.568C118.838 168.12 120.444 165.979 122.127 164.143C123.963 162.154 125.952 160.471 128.094 159.094C130.236 157.564 132.837 156.263 135.896 155.192C137.732 155.957 139.339 156.799 140.716 157.717C142.093 158.482 143.317 159.476 144.388 160.7L145.076 163.913C145.382 164.984 145.841 165.749 146.453 166.208C147.218 166.514 147.83 166.667 148.289 166.667C150.278 167.126 151.961 167.661 153.338 168.273C154.868 168.732 156.474 169.038 158.157 169.191C158.769 170.109 159.305 171.027 159.764 171.945C160.376 172.863 160.988 173.705 161.6 174.47C164.66 178.907 167.184 183.19 169.173 187.321C171.162 191.452 171.162 195.965 169.173 200.861L169.402 203.386C170.167 204.457 170.55 205.451 170.55 206.369C170.55 207.287 170.397 208.588 170.091 210.271C169.938 211.494 169.785 212.871 169.632 214.401C169.632 215.778 169.861 217.308 170.32 218.991L171.927 220.827C174.375 222.051 176.746 222.663 179.041 222.663C182.101 222.663 184.855 221.975 187.303 220.598C189.751 219.221 192.046 217.844 194.188 216.467C195.87 215.243 197.4 214.248 198.777 213.483C200.307 212.718 201.761 212.183 203.138 211.877C206.351 208.817 209.257 206.14 211.858 203.845C214.612 201.397 217.443 198.949 220.35 196.501C225.857 192.064 231.212 187.321 236.414 182.272C241.616 177.071 245.747 170.645 248.807 162.995C250.49 161.924 252.402 161.389 254.544 161.389C256.686 161.389 258.828 161.848 260.97 162.766C263.112 163.531 265.254 164.449 267.396 165.52C267.854 165.826 268.237 166.055 268.543 166.208C269.002 166.361 269.461 166.59 269.92 166.896C269.92 168.579 270.608 170.109 271.985 171.486C272.75 172.098 273.286 172.481 273.592 172.634C273.898 172.787 274.204 172.94 274.51 173.093C275.734 173.858 276.728 174.546 277.493 175.158C278.411 175.77 279.1 176.612 279.559 177.683C280.936 181.813 283.23 185.026 286.443 187.321C286.137 189.004 286.214 190.687 286.673 192.37C287.132 193.9 287.667 195.43 288.279 196.96C288.585 197.572 288.815 198.184 288.968 198.796C289.121 199.255 289.35 199.867 289.656 200.632L284.607 200.173L285.296 205.222C285.755 207.823 285.525 210.729 284.607 213.942C283.842 217.155 282.924 219.68 281.854 221.516C282.16 226.105 282.312 229.777 282.312 232.531C282.312 235.132 282.16 237.58 281.854 239.875C281.548 242.17 281.012 244.388 280.247 246.53C279.635 248.519 278.794 250.661 277.723 252.956C278.335 264.584 276.958 275.217 273.592 284.855C270.379 294.494 266.86 303.521 263.035 311.936C262.576 313.007 262.117 314.001 261.658 314.919C261.199 315.837 260.817 316.755 260.511 317.673C258.828 318.132 257.298 318.667 255.921 319.279C254.544 319.891 253.243 320.58 252.02 321.345C250.337 322.416 248.654 323.334 246.971 324.099C245.288 324.711 243.528 325.017 241.692 325.017C234.349 319.662 230.524 310.406 230.218 297.248C230.065 284.09 232.895 267.338 238.709 246.989C239.78 246.224 240.239 245.077 240.086 243.547V241.022L237.791 240.793C237.026 240.793 236.338 240.869 235.726 241.022C235.114 241.175 234.655 241.864 234.349 243.088C229.453 246.607 224.098 250.279 218.284 254.104C212.623 257.775 206.733 261.218 200.613 264.431C194.493 267.491 188.221 270.091 181.795 272.233C175.522 274.222 169.402 275.217 163.436 275.217C148.136 275.217 136.585 267.414 128.782 251.809L126.717 247.678L124.422 251.35C123.963 252.115 123.121 253.645 121.897 255.939C120.826 258.081 119.679 260.606 118.455 263.513C117.384 266.42 116.39 269.403 115.472 272.463C114.707 275.523 114.477 278.2 114.783 280.495C112.947 282.178 111.111 284.09 109.275 286.232C107.592 288.374 106.368 290.822 105.604 293.576C105.298 294.341 105.221 295.106 105.374 295.871C105.527 296.483 105.757 297.172 106.062 297.937C105.91 299.007 105.604 299.772 105.145 300.231C104.686 300.69 104.15 301.149 103.538 301.608C102.773 302.373 102.008 303.215 101.243 304.133C100.478 304.898 99.7897 305.816 99.1777 306.887C98.8717 307.805 98.6423 308.799 98.4893 309.87C98.3363 310.788 98.1833 311.63 98.0303 312.395C98.0303 314.077 97.8008 315.225 97.3418 315.837C95.8118 319.05 94.4349 321.727 93.2109 323.869C92.14 325.858 91.069 327.388 89.998 328.459C88.9271 329.53 87.7796 330.218 86.5557 330.524C85.4847 330.983 84.1842 331.213 82.6543 331.213ZM309.852 217.155C303.426 214.554 298.071 210.882 293.787 206.14C289.656 201.397 286.29 195.812 283.689 189.387C285.219 185.256 287.667 181.813 291.033 179.06C294.399 176.153 298.147 173.705 302.278 171.716C306.562 169.727 311.076 168.12 315.818 166.896C320.561 165.673 325.151 164.602 329.588 163.684C330.506 163.99 330.965 163.99 330.965 163.684C330.965 163.378 331.347 163.531 332.112 164.143C337.62 162.46 343.969 160.853 351.16 159.323C358.351 157.64 366.001 157.028 374.109 157.487C375.18 156.875 376.481 156.569 378.011 156.569C379.541 156.416 381.147 156.34 382.83 156.34C384.513 156.34 386.119 156.34 387.649 156.34C389.179 156.187 390.48 155.881 391.551 155.422C392.469 156.493 393.846 157.181 395.682 157.487C397.518 157.64 399.43 158.405 401.419 159.782C402.031 159.935 402.031 159.706 401.419 159.094C400.807 158.329 400.883 157.793 401.648 157.487C403.637 157.487 405.397 157.946 406.927 158.864C408.457 159.782 409.834 160.853 411.058 162.077C412.435 163.148 413.659 164.143 414.729 165.061C415.953 165.979 417.254 166.438 418.631 166.438C420.008 168.12 421.614 169.727 423.45 171.257C425.439 172.634 427.275 174.087 428.958 175.617C430.794 177.147 432.247 178.83 433.318 180.666C434.542 182.502 435.154 184.567 435.154 186.862C435.001 187.78 435.307 188.316 436.072 188.469C436.837 188.622 437.373 189.081 437.679 189.846C437.832 195.507 436.914 200.402 434.925 204.533C433.089 208.664 430.717 212.489 427.811 216.008C424.904 219.374 421.767 222.587 418.401 225.646C415.188 228.706 412.205 231.996 409.451 235.515C411.287 237.81 413.353 239.951 415.647 241.94C418.095 243.776 420.543 245.612 422.991 247.448C425.439 249.284 427.734 251.273 429.876 253.415C432.171 255.404 434.083 257.699 435.613 260.3C436.072 261.218 437.067 261.83 438.597 262.136C439.056 263.972 439.668 265.884 440.433 267.873C441.351 269.709 442.192 271.545 442.957 273.381C443.722 275.064 444.181 276.594 444.334 277.971C444.487 279.348 444.104 280.495 443.187 281.413C444.257 282.025 444.869 283.02 445.022 284.396C445.175 285.62 445.175 286.615 445.022 287.38C441.657 291.511 439.362 294.418 438.138 296.101C436.914 297.784 435.996 299.007 435.384 299.772C434.772 300.537 434.16 301.226 433.548 301.838C432.936 302.45 431.559 303.674 429.417 305.51C421.308 310.406 412.817 314.842 403.943 318.82C395.223 322.645 386.119 325.246 376.634 326.623C375.869 327.694 374.721 328.535 373.191 329.147C371.814 329.912 370.208 330.524 368.372 330.983C366.536 331.442 364.547 331.825 362.405 332.131C360.416 332.437 358.58 332.743 356.897 333.049C356.132 332.743 355.674 332.207 355.521 331.442C355.521 330.83 355.138 330.371 354.373 330.065C354.22 331.901 353.379 332.819 351.849 332.819C350.472 332.972 348.712 332.666 346.57 331.901C344.428 331.136 342.21 330.065 339.915 328.688C337.62 327.312 335.631 326.011 333.948 324.787C333.183 326.164 332.189 327.618 330.965 329.147C329.894 330.677 328.746 331.748 327.522 332.36C325.381 332.054 323.774 331.825 322.703 331.672C321.785 331.519 320.867 331.901 319.949 332.819C318.725 332.207 317.807 331.519 317.195 330.754C316.583 330.142 315.971 329.453 315.359 328.688C314.747 328.076 314.059 327.541 313.294 327.082C312.529 326.47 311.382 325.935 309.852 325.476C310.158 324.711 309.928 323.563 309.163 322.033C308.398 320.35 307.327 319.356 305.95 319.05C306.715 317.826 306.409 316.296 305.032 314.46C303.655 312.471 302.584 310.253 301.819 307.805C301.972 306.734 302.049 305.663 302.049 304.592C302.202 303.368 302.355 302.297 302.508 301.379C302.814 300.308 303.196 299.39 303.655 298.625C304.114 297.86 304.879 297.325 305.95 297.019C305.797 295.03 305.185 293.117 304.114 291.281C305.491 290.21 306.409 288.91 306.868 287.38C307.327 285.697 307.71 284.014 308.016 282.331C308.475 280.648 309.01 279.042 309.622 277.512C310.234 275.829 311.229 274.452 312.605 273.381C312.299 272.922 311.993 272.539 311.688 272.233C311.382 271.927 311.229 271.392 311.229 270.627C313.523 266.802 315.13 263.589 316.048 260.988C316.966 258.234 317.654 255.633 318.113 253.186C318.725 250.585 319.337 247.831 319.949 244.924C320.561 242.017 321.785 238.345 323.621 233.908C323.468 231.154 323.774 228.706 324.539 226.564C325.304 224.423 326.069 222.357 326.834 220.368C327.752 218.226 328.44 216.008 328.899 213.713C329.358 211.418 329.282 208.741 328.67 205.681C326.069 205.987 324.157 206.905 322.933 208.435C321.862 209.965 321.173 212.03 320.867 214.631C319.49 215.855 317.731 216.467 315.589 216.467C313.447 216.314 311.535 216.543 309.852 217.155ZM410.828 261.447C405.014 258.234 399.66 256.322 394.764 255.71C390.021 255.098 385.431 255.174 380.994 255.939C376.71 256.551 372.579 257.469 368.602 258.693C364.624 259.917 360.646 260.835 356.668 261.447C354.679 266.649 352.614 272.386 350.472 278.659C348.33 284.932 346.264 291.052 344.275 297.019C349.783 296.254 354.832 295.106 359.422 293.576C364.012 292.046 368.449 290.363 372.732 288.527C377.016 286.538 381.224 284.626 385.354 282.79C389.485 280.801 393.769 278.965 398.206 277.282C398.665 275.446 399.66 273.993 401.189 272.922C402.719 271.851 404.249 270.856 405.779 269.938C407.309 268.868 408.61 267.72 409.681 266.496C410.752 265.272 411.134 263.589 410.828 261.447ZM394.764 189.616C385.278 189.31 375.945 190.152 366.766 192.141C357.586 194.13 349.86 197.036 343.587 200.861C346.647 203.462 349.783 205.757 352.996 207.746C356.362 209.735 358.886 212.412 360.569 215.778C367.913 212.871 374.339 209.2 379.847 204.763C385.354 200.173 390.327 195.124 394.764 189.616Z" fill="#D9E2EC"/>
</g>
</g>
<defs>
<filter id="filter0_i_3_8" x="0" y="0" width="523" height="504" filterUnits="userSpaceOnUse" color-interpolation-filters="sRGB">
<feFlood flood-opacity="0" result="BackgroundImageFix"/>
<feBlend mode="normal" in="SourceGraphic" in2="BackgroundImageFix" result="shape"/>
<feColorMatrix in="SourceAlpha" type="matrix" values="0 0 0 0 0 0 0 0 0 0 0 0 0 0 0 0 0 0 127 0" result="hardAlpha"/>
<feOffset dy="4"/>
<feGaussianBlur stdDeviation="2"/>
<feComposite in2="hardAlpha" operator="arithmetic" k2="-1" k3="1"/>
<feColorMatrix type="matrix" values="0 0 0 0 0 0 0 0 0 0 0 0 0 0 0 0 0 0 0.25 0"/>
<feBlend mode="normal" in2="shape" result="effect1_innerShadow_3_8"/>
</filter>
<clipPath id="clip0_3_8">
<rect width="523" height="500" rx="2" fill="white"/>
</clipPath>
</defs>
</svg>
