<svg width="887" height="299" viewBox="0 0 887 299" fill="none" xmlns="http://www.w3.org/2000/svg">
<g clip-path="url(#clip0_5_3)">
<path d="M16.6992 216.598C15.4622 216.598 13.5449 216.412 10.9473 216.041C8.9681 213.938 7.17448 211.093 5.56641 207.506C4.08203 203.795 2.9069 199.898 2.04102 195.816C1.29883 191.611 0.927734 187.467 0.927734 183.385C1.05143 179.179 1.79362 175.468 3.1543 172.252C3.1543 172.128 3.71094 170.644 4.82422 167.799C6.0612 164.954 7.60742 161.367 9.46289 157.037C11.3184 152.584 13.4212 147.698 15.7715 142.379C18.1217 136.936 20.472 131.617 22.8223 126.422C25.1725 121.227 27.3991 116.526 29.502 112.32C31.7285 107.991 33.6458 104.651 35.2539 102.301C36.3672 100.569 37.3568 98.8991 38.2227 97.291C39.2122 95.6829 40.14 94.1986 41.0059 92.8379C42.3665 90.6113 43.6035 88.5703 44.7168 86.7148C45.9538 84.7357 47.2526 83.0039 48.6133 81.5195C50.0977 79.9115 51.7057 78.5508 53.4375 77.4375C55.1693 76.2005 57.2721 75.1491 59.7461 74.2832C61.2305 74.9017 62.5293 75.582 63.6426 76.3242C64.7559 76.9427 65.7454 77.7467 66.6113 78.7363L67.168 81.334C67.4154 82.1999 67.7865 82.8184 68.2812 83.1895C68.8997 83.4368 69.3945 83.5605 69.7656 83.5605C71.3737 83.9316 72.7344 84.3646 73.8477 84.8594C75.0846 85.2305 76.3835 85.4779 77.7441 85.6016C78.2389 86.3438 78.6719 87.0859 79.043 87.8281C79.5378 88.5703 80.0326 89.2507 80.5273 89.8691C83.0013 93.4564 85.0423 96.9199 86.6504 100.26C88.2585 103.6 88.2585 107.249 86.6504 111.207L86.8359 113.248C87.4544 114.114 87.7637 114.918 87.7637 115.66C87.7637 116.402 87.64 117.454 87.3926 118.814C87.2689 119.804 87.1452 120.917 87.0215 122.154C87.0215 123.268 87.207 124.505 87.5781 125.865L88.877 127.35C90.8561 128.339 92.7734 128.834 94.6289 128.834C97.1029 128.834 99.3294 128.277 101.309 127.164C103.288 126.051 105.143 124.938 106.875 123.824C108.236 122.835 109.473 122.031 110.586 121.412C111.823 120.794 112.998 120.361 114.111 120.113C116.709 117.639 119.059 115.475 121.162 113.619C123.389 111.64 125.677 109.661 128.027 107.682C132.48 104.094 136.81 100.26 141.016 96.1777C145.221 91.972 148.561 86.7767 151.035 80.5918C152.396 79.7259 153.942 79.293 155.674 79.293C157.406 79.293 159.137 79.6641 160.869 80.4062C162.601 81.0247 164.333 81.7669 166.064 82.6328C166.436 82.8802 166.745 83.0658 166.992 83.1895C167.363 83.3132 167.734 83.4987 168.105 83.7461C168.105 85.1068 168.662 86.3438 169.775 87.457C170.394 87.9518 170.827 88.2611 171.074 88.3848C171.322 88.5085 171.569 88.6322 171.816 88.7559C172.806 89.3743 173.61 89.931 174.229 90.4258C174.971 90.9206 175.527 91.6009 175.898 92.4668C177.012 95.8066 178.867 98.4043 181.465 100.26C181.217 101.62 181.279 102.981 181.65 104.342C182.021 105.579 182.454 106.816 182.949 108.053C183.197 108.548 183.382 109.042 183.506 109.537C183.63 109.908 183.815 110.403 184.062 111.021L179.98 110.65L180.537 114.732C180.908 116.835 180.723 119.186 179.98 121.783C179.362 124.381 178.62 126.422 177.754 127.906C178.001 131.617 178.125 134.586 178.125 136.812C178.125 138.915 178.001 140.895 177.754 142.75C177.507 144.605 177.074 146.399 176.455 148.131C175.96 149.739 175.28 151.471 174.414 153.326C174.909 162.727 173.796 171.324 171.074 179.117C168.477 186.91 165.632 194.208 162.539 201.012C162.168 201.878 161.797 202.682 161.426 203.424C161.055 204.166 160.745 204.908 160.498 205.65C159.137 206.021 157.9 206.454 156.787 206.949C155.674 207.444 154.622 208.001 153.633 208.619C152.272 209.485 150.911 210.227 149.551 210.846C148.19 211.34 146.768 211.588 145.283 211.588C139.346 207.258 136.253 199.775 136.006 189.137C135.882 178.499 138.171 164.954 142.871 148.502C143.737 147.883 144.108 146.956 143.984 145.719V143.678L142.129 143.492C141.51 143.492 140.954 143.554 140.459 143.678C139.964 143.801 139.593 144.358 139.346 145.348C135.387 148.193 131.058 151.161 126.357 154.254C121.781 157.223 117.018 160.006 112.07 162.604C107.122 165.077 102.051 167.18 96.8555 168.912C91.7839 170.52 86.8359 171.324 82.0117 171.324C69.6419 171.324 60.3027 165.016 53.9941 152.398L52.3242 149.059L50.4688 152.027C50.0977 152.646 49.4173 153.883 48.4277 155.738C47.5618 157.47 46.6341 159.511 45.6445 161.861C44.7786 164.212 43.9746 166.624 43.2324 169.098C42.6139 171.572 42.4284 173.736 42.6758 175.592C41.1914 176.952 39.707 178.499 38.2227 180.23C36.862 181.962 35.8724 183.941 35.2539 186.168C35.0065 186.786 34.9447 187.405 35.0684 188.023C35.1921 188.518 35.3776 189.075 35.625 189.693C35.5013 190.559 35.2539 191.178 34.8828 191.549C34.5117 191.92 34.0788 192.291 33.584 192.662C32.9655 193.281 32.347 193.961 31.7285 194.703C31.11 195.322 30.5534 196.064 30.0586 196.93C29.8112 197.672 29.6257 198.476 29.502 199.342C29.3783 200.084 29.2546 200.764 29.1309 201.383C29.1309 202.743 28.9453 203.671 28.5742 204.166C27.3372 206.764 26.224 208.928 25.2344 210.66C24.3685 212.268 23.5026 213.505 22.6367 214.371C21.7708 215.237 20.8431 215.794 19.8535 216.041C18.9876 216.412 17.9362 216.598 16.6992 216.598ZM293.164 158.336C293.04 159.82 293.164 161.243 293.535 162.604C293.906 163.964 294.339 165.325 294.834 166.686C295.452 167.923 296.009 169.221 296.504 170.582C296.999 171.943 297.37 173.303 297.617 174.664C297.865 176.396 297.865 178.313 297.617 180.416C297.37 182.395 296.937 184.374 296.318 186.354C295.7 188.209 294.896 189.941 293.906 191.549C292.917 193.033 291.742 194.146 290.381 194.889C288.649 197.115 286.546 198.847 284.072 200.084C281.598 201.321 279.31 202.805 277.207 204.537C275.846 205.403 274.3 206.021 272.568 206.393C270.96 206.764 269.29 207.135 267.559 207.506C266.198 208.248 264.59 209.052 262.734 209.918C260.879 210.66 258.962 211.402 256.982 212.145C255.003 212.763 253.024 213.258 251.045 213.629C249.066 213.876 247.334 213.938 245.85 213.814C242.139 215.175 238.49 216.041 234.902 216.412C231.439 216.907 227.357 216.66 222.656 215.67C218.203 216.288 214.059 216.103 210.225 215.113C206.514 214.124 203.174 212.577 200.205 210.475C197.36 208.248 194.824 205.65 192.598 202.682C190.495 199.589 188.763 196.373 187.402 193.033C186.413 185.982 186.66 179.612 188.145 173.922C189.629 168.108 191.732 162.789 194.453 157.965C197.298 153.017 200.514 148.502 204.102 144.42C207.689 140.214 211.152 136.132 214.492 132.174C215.234 132.421 215.791 132.421 216.162 132.174C216.657 131.803 217.09 131.37 217.461 130.875C217.832 130.257 218.203 129.7 218.574 129.205C219.069 128.71 219.626 128.401 220.244 128.277C221.11 126.422 222.347 125.061 223.955 124.195C225.687 123.206 227.048 121.845 228.037 120.113C229.15 119.866 230.078 119.495 230.82 119C231.562 118.505 232.243 117.949 232.861 117.33C233.604 116.712 234.346 116.155 235.088 115.66C235.83 115.042 236.696 114.609 237.686 114.361V112.32C239.912 111.331 241.52 110.217 242.51 108.98C243.623 107.62 244.922 106.012 246.406 104.156C247.52 104.033 248.385 103.971 249.004 103.971C249.746 103.971 250.798 103.847 252.158 103.6C253.148 101.868 254.014 100.569 254.756 99.7031C255.622 98.8372 256.859 97.9095 258.467 96.9199C259.951 97.6621 261.559 98.1569 263.291 98.4043C265.146 98.6517 266.755 99.4557 268.115 100.816C268.239 102.053 268.61 103.043 269.229 103.785C269.847 104.404 270.527 105.022 271.27 105.641C272.012 106.135 272.692 106.692 273.311 107.311C274.053 107.929 274.548 108.795 274.795 109.908C275.29 110.032 275.599 109.97 275.723 109.723C275.97 109.475 276.341 109.413 276.836 109.537C277.207 111.269 277.64 112.444 278.135 113.062C278.63 113.557 279.124 114.609 279.619 116.217C279.001 117.454 278.506 118.753 278.135 120.113C277.887 121.35 277.145 122.278 275.908 122.896C275.785 123.762 276.032 124.257 276.65 124.381C277.269 124.381 277.64 124.69 277.764 125.309C277.887 126.422 277.702 127.226 277.207 127.721C280.176 132.545 282.835 137.678 285.186 143.121C287.536 148.44 290.195 153.512 293.164 158.336ZM269.971 175.963C270.465 174.602 271.084 173.489 271.826 172.623C272.692 171.757 273.187 170.458 273.311 168.727C272.692 167.737 272.321 166.995 272.197 166.5C272.074 165.882 272.012 164.954 272.012 163.717C269.29 159.882 266.94 155.8 264.961 151.471C262.982 147.018 260.755 142.874 258.281 139.039C258.034 139.534 257.601 140.029 256.982 140.523C256.364 141.018 255.684 140.895 254.941 140.152C254.694 141.142 254.261 141.884 253.643 142.379C253.024 142.75 252.344 142.936 251.602 142.936C250.859 142.812 250.055 142.626 249.189 142.379C248.447 142.008 247.767 141.575 247.148 141.08C243.561 143.925 239.974 146.708 236.387 149.43C232.799 152.151 229.583 155.305 226.738 158.893C226.243 159.14 225.934 159.264 225.811 159.264C225.687 159.14 225.316 159.202 224.697 159.449C223.708 161.799 222.471 163.964 220.986 165.943C219.626 167.799 218.265 169.716 216.904 171.695C215.544 173.674 214.368 175.777 213.379 178.004C212.389 180.23 211.833 182.828 211.709 185.797C213.812 187.529 216.286 188.58 219.131 188.951C221.976 189.322 224.883 189.384 227.852 189.137C230.944 188.889 233.913 188.518 236.758 188.023C239.727 187.405 242.448 187.096 244.922 187.096C250.117 185.859 254.57 184.251 258.281 182.271C261.992 180.169 265.889 178.066 269.971 175.963ZM360.518 181.344C360.394 183.076 359.961 184.745 359.219 186.354C358.6 187.838 357.796 189.322 356.807 190.807C355.817 192.167 354.704 193.528 353.467 194.889C352.354 196.126 351.24 197.239 350.127 198.229C350.498 199.837 350.498 201.074 350.127 201.939C349.88 202.682 349.818 203.857 349.941 205.465C348.086 210.413 345.241 213.691 341.406 215.299C337.695 217.031 334.17 216.721 330.83 214.371C329.469 213.382 328.294 212.145 327.305 210.66C326.439 209.052 325.202 208.062 323.594 207.691C323.965 205.589 323.779 203.486 323.037 201.383C322.295 199.28 321.491 198.167 320.625 198.043C320.254 195.445 319.697 192.662 318.955 189.693C318.213 186.725 317.533 183.756 316.914 180.787C316.296 177.695 315.739 174.726 315.244 171.881C314.873 168.912 314.749 166.191 314.873 163.717C314.997 162.48 314.749 161.367 314.131 160.377C313.636 159.387 313.265 158.212 313.018 156.852C312.523 154.007 312.337 151.038 312.461 147.945C312.708 144.729 312.832 141.699 312.832 138.854C312.832 136.132 312.646 133.225 312.275 130.133C312.028 126.917 311.781 123.886 311.533 121.041C311.286 118.072 311.162 115.413 311.162 113.062C311.162 110.589 311.471 108.671 312.09 107.311C312.832 105.826 313.822 104.651 315.059 103.785C316.419 102.796 317.656 101.744 318.77 100.631C321.491 100.878 323.656 101.992 325.264 103.971C326.872 105.95 327.49 107.805 327.119 109.537C329.717 111.145 331.758 113.248 333.242 115.846C334.85 118.32 336.087 121.165 336.953 124.381C337.943 127.473 338.623 130.813 338.994 134.4C339.365 137.864 339.674 141.327 339.922 144.791C340.169 148.131 340.417 151.347 340.664 154.439C340.911 157.532 341.406 160.191 342.148 162.418C346.725 155.862 350.56 150.048 353.652 144.977C356.745 139.781 359.899 134.833 363.115 130.133C366.331 125.432 369.919 120.67 373.877 115.846C377.835 111.021 382.969 105.579 389.277 99.5176C390.514 99.6413 391.504 99.8887 392.246 100.26C393.112 100.631 393.854 100.94 394.473 101.188C395.091 101.435 395.833 101.682 396.699 101.93C397.565 102.053 398.74 101.992 400.225 101.744C400.719 102.981 401.09 103.909 401.338 104.527C401.585 105.022 401.771 105.579 401.895 106.197C402.142 106.692 402.389 107.372 402.637 108.238C403.008 109.104 403.564 110.341 404.307 111.949C404.678 112.32 404.801 112.815 404.678 113.434C404.554 114.052 404.43 114.671 404.307 115.289C404.307 115.784 404.307 116.155 404.307 116.402C404.307 116.65 404.616 116.65 405.234 116.402C404.863 118.134 404.183 119.742 403.193 121.227C402.327 122.587 401.956 124.257 402.08 126.236C399.235 129.947 396.081 133.782 392.617 137.74C389.277 141.699 385.876 145.781 382.412 149.986C379.072 154.192 375.856 158.645 372.764 163.346C369.671 167.923 367.012 172.747 364.785 177.818C364.167 177.818 363.672 178.004 363.301 178.375C363.053 178.746 362.806 179.179 362.559 179.674C362.311 180.045 362.002 180.416 361.631 180.787C361.383 181.158 361.012 181.344 360.518 181.344ZM430.283 201.012C430.902 204.723 430.654 207.63 429.541 209.732C428.551 211.835 427.067 213.382 425.088 214.371C423.232 215.484 421.068 216.103 418.594 216.227C416.12 216.35 413.77 216.227 411.543 215.855C410.306 214.124 409.193 211.959 408.203 209.361C407.214 206.764 406.286 204.104 405.42 201.383C404.554 198.538 403.75 195.755 403.008 193.033C402.389 190.312 401.833 187.9 401.338 185.797C401.956 184.312 402.327 182.643 402.451 180.787C402.699 178.808 402.822 176.829 402.822 174.85C402.946 172.87 403.008 170.891 403.008 168.912C403.132 166.809 403.317 164.83 403.564 162.975C404.43 157.779 405.667 152.831 407.275 148.131C409.007 143.43 410.368 138.544 411.357 133.473C411.605 132.359 411.481 131.308 410.986 130.318C410.615 129.329 410.553 128.401 410.801 127.535C410.924 127.04 411.296 126.731 411.914 126.607C412.533 126.36 412.904 125.927 413.027 125.309C413.398 123.948 413.46 122.835 413.213 121.969C413.089 121.103 413.337 120.051 413.955 118.814C414.574 117.825 415.316 116.402 416.182 114.547C417.171 112.568 417.542 110.527 417.295 108.424C418.408 107.682 419.46 106.816 420.449 105.826C421.439 104.837 422.428 103.971 423.418 103.229C424.531 102.363 425.706 101.62 426.943 101.002C428.304 100.383 429.912 100.074 431.768 100.074C432.757 101.311 433.376 102.672 433.623 104.156C433.994 105.641 434.303 107.125 434.551 108.609C434.922 110.094 435.417 111.516 436.035 112.877C436.654 114.114 437.705 115.104 439.189 115.846C439.189 116.835 439.189 118.072 439.189 119.557C439.189 121.041 439.251 122.525 439.375 124.01C439.499 125.37 439.746 126.669 440.117 127.906C440.612 129.02 441.354 129.762 442.344 130.133C440.117 136.07 438.014 141.946 436.035 147.76C434.18 153.574 432.633 159.449 431.396 165.387C430.16 171.201 429.355 177.076 428.984 183.014C428.737 188.951 429.17 194.951 430.283 201.012ZM555.342 109.537C555.465 110.403 555.465 111.083 555.342 111.578C555.342 111.949 555.28 112.32 555.156 112.691C555.156 113.062 555.156 113.495 555.156 113.99C555.156 114.361 555.28 114.98 555.527 115.846C552.93 120.051 549.899 122.958 546.436 124.566C543.096 126.051 539.447 127.164 535.488 127.906C531.53 128.525 527.448 129.205 523.242 129.947C519.16 130.689 515.078 132.298 510.996 134.771C509.388 134.153 507.904 134.153 506.543 134.771C505.306 135.39 503.451 135.576 500.977 135.328C500.234 136.07 499.307 136.627 498.193 136.998C497.08 137.245 495.967 137.555 494.854 137.926C495.348 139.039 495.534 140.214 495.41 141.451C495.41 142.564 495.596 143.492 495.967 144.234C500.296 144.605 505.059 144.544 510.254 144.049C515.573 143.554 520.768 143.245 525.84 143.121C525.964 143.74 525.902 144.173 525.654 144.42C525.407 144.544 525.345 144.853 525.469 145.348C526.335 145.966 527.201 146.77 528.066 147.76C528.932 148.626 529.798 149.492 530.664 150.357C531.53 151.223 532.396 151.965 533.262 152.584C534.251 153.079 535.365 153.264 536.602 153.141C537.096 154.13 537.406 155.243 537.529 156.48C537.777 157.594 537.653 158.769 537.158 160.006C535.179 161.367 533.2 162.789 531.221 164.273C529.242 165.634 527.139 166.871 524.912 167.984C522.809 169.098 520.521 170.025 518.047 170.768C515.697 171.386 513.037 171.633 510.068 171.51C509.45 171.51 508.955 171.51 508.584 171.51C508.337 171.51 507.965 171.324 507.471 170.953C506.481 171.572 505.059 171.757 503.203 171.51C501.471 171.262 500.111 171.448 499.121 172.066C497.76 171.448 496.09 171.201 494.111 171.324C492.256 171.324 490.586 171.077 489.102 170.582C487.122 173.18 485.329 175.963 483.721 178.932C482.113 181.9 480.69 185.055 479.453 188.395C483.659 189.013 487.122 189.26 489.844 189.137C492.689 189.013 495.348 188.827 497.822 188.58C500.296 188.209 502.832 187.9 505.43 187.652C508.027 187.281 511.305 187.158 515.264 187.281C517.738 185.921 520.645 185.055 523.984 184.684C527.448 184.189 530.602 183.447 533.447 182.457C534.437 182.828 535.303 183.508 536.045 184.498C536.787 185.364 537.467 186.23 538.086 187.096C538.828 187.838 539.57 188.518 540.312 189.137C541.055 189.755 541.982 190.003 543.096 189.879C543.59 190.374 543.9 190.992 544.023 191.734C544.271 192.353 544.456 192.971 544.58 193.59C544.704 194.208 544.889 194.765 545.137 195.26C545.508 195.631 546.064 195.755 546.807 195.631C544.951 199.713 542.786 202.867 540.312 205.094C537.962 207.197 535.241 208.805 532.148 209.918C529.056 211.031 525.592 211.897 521.758 212.516C518.047 213.134 513.903 213.876 509.326 214.742C508.213 214.99 507.285 214.928 506.543 214.557C505.801 214.309 504.935 214.186 503.945 214.186C501.1 214.804 497.699 215.361 493.74 215.855C489.782 216.35 485.762 216.536 481.68 216.412C477.598 216.288 473.701 215.732 469.99 214.742C466.279 213.876 463.249 212.268 460.898 209.918C459.909 209.052 459.229 208.062 458.857 206.949C458.61 205.712 457.806 204.785 456.445 204.166C456.322 202.558 456.074 200.764 455.703 198.785C455.332 196.806 454.961 194.765 454.59 192.662C454.219 190.436 453.91 188.271 453.662 186.168C453.538 184.065 453.662 182.148 454.033 180.416C454.404 178.561 455.146 176.891 456.26 175.406C457.497 173.922 457.93 172.314 457.559 170.582C458.177 170.458 458.548 170.149 458.672 169.654C458.796 169.036 459.29 168.788 460.156 168.912C460.898 166.686 461.702 164.583 462.568 162.604C463.434 160.624 464.3 158.707 465.166 156.852C466.156 154.996 467.083 153.141 467.949 151.285C468.939 149.306 469.867 147.141 470.732 144.791C469.001 143.183 467.702 141.451 466.836 139.596C466.094 137.617 465.537 135.699 465.166 133.844C464.795 131.865 464.486 129.885 464.238 127.906C463.991 125.803 463.558 123.701 462.939 121.598C464.176 119.742 465.661 118.258 467.393 117.145C469.248 115.908 471.227 114.918 473.33 114.176C475.433 113.434 477.721 112.815 480.195 112.32C482.669 111.826 485.267 111.269 487.988 110.65C492.936 109.042 497.327 107.805 501.162 106.939C505.12 106.074 508.955 105.393 512.666 104.898C516.501 104.28 520.459 103.723 524.541 103.229C528.623 102.734 533.262 101.992 538.457 101.002C539.57 102.115 540.622 102.672 541.611 102.672C542.106 101.559 542.663 101.249 543.281 101.744C544.023 102.115 544.333 101.744 544.209 100.631C545.446 102.734 546.992 104.527 548.848 106.012C550.827 107.372 552.992 108.548 555.342 109.537Z" fill="#1E1E1E"/>
<path d="M566.289 124.381C561.094 122.278 556.764 119.309 553.301 115.475C549.961 111.64 547.24 107.125 545.137 101.93C546.374 98.5898 548.353 95.8066 551.074 93.5801C553.796 91.2298 556.826 89.2507 560.166 87.6426C563.63 86.0345 567.279 84.7357 571.113 83.7461C574.948 82.7565 578.659 81.8906 582.246 81.1484C582.988 81.3958 583.359 81.3958 583.359 81.1484C583.359 80.901 583.669 81.0247 584.287 81.5195C588.74 80.1589 593.874 78.86 599.688 77.623C605.501 76.2624 611.686 75.7676 618.242 76.1387C619.108 75.6439 620.16 75.3965 621.396 75.3965C622.633 75.2728 623.932 75.2109 625.293 75.2109C626.654 75.2109 627.952 75.2109 629.189 75.2109C630.426 75.0872 631.478 74.8398 632.344 74.4688C633.086 75.3346 634.199 75.8913 635.684 76.1387C637.168 76.2624 638.714 76.8809 640.322 77.9941C640.817 78.1178 640.817 77.9323 640.322 77.4375C639.827 76.819 639.889 76.3861 640.508 76.1387C642.116 76.1387 643.538 76.5098 644.775 77.252C646.012 77.9941 647.126 78.86 648.115 79.8496C649.229 80.7155 650.218 81.5195 651.084 82.2617C652.074 83.0039 653.125 83.375 654.238 83.375C655.352 84.7357 656.65 86.0345 658.135 87.2715C659.743 88.3848 661.227 89.5599 662.588 90.7969C664.072 92.0339 665.247 93.3945 666.113 94.8789C667.103 96.3633 667.598 98.0332 667.598 99.8887C667.474 100.631 667.721 101.064 668.34 101.188C668.958 101.311 669.391 101.682 669.639 102.301C669.762 106.878 669.02 110.836 667.412 114.176C665.928 117.516 664.01 120.608 661.66 123.453C659.31 126.174 656.774 128.772 654.053 131.246C651.455 133.72 649.043 136.38 646.816 139.225C648.301 141.08 649.971 142.812 651.826 144.42C653.805 145.904 655.785 147.389 657.764 148.873C659.743 150.357 661.598 151.965 663.33 153.697C665.186 155.305 666.732 157.161 667.969 159.264C668.34 160.006 669.144 160.501 670.381 160.748C670.752 162.232 671.247 163.779 671.865 165.387C672.607 166.871 673.288 168.355 673.906 169.84C674.525 171.201 674.896 172.438 675.02 173.551C675.143 174.664 674.834 175.592 674.092 176.334C674.958 176.829 675.452 177.633 675.576 178.746C675.7 179.736 675.7 180.54 675.576 181.158C672.855 184.498 670.999 186.848 670.01 188.209C669.02 189.57 668.278 190.559 667.783 191.178C667.288 191.796 666.794 192.353 666.299 192.848C665.804 193.342 664.691 194.332 662.959 195.816C656.403 199.775 649.538 203.362 642.363 206.578C635.312 209.671 627.952 211.773 620.283 212.887C619.665 213.753 618.737 214.433 617.5 214.928C616.387 215.546 615.088 216.041 613.604 216.412C612.119 216.783 610.511 217.092 608.779 217.34C607.171 217.587 605.687 217.835 604.326 218.082C603.708 217.835 603.337 217.402 603.213 216.783C603.213 216.288 602.904 215.917 602.285 215.67C602.161 217.154 601.481 217.896 600.244 217.896C599.131 218.02 597.708 217.773 595.977 217.154C594.245 216.536 592.451 215.67 590.596 214.557C588.74 213.443 587.132 212.392 585.771 211.402C585.153 212.516 584.349 213.691 583.359 214.928C582.493 216.165 581.566 217.031 580.576 217.525C578.844 217.278 577.546 217.092 576.68 216.969C575.938 216.845 575.195 217.154 574.453 217.896C573.464 217.402 572.721 216.845 572.227 216.227C571.732 215.732 571.237 215.175 570.742 214.557C570.247 214.062 569.691 213.629 569.072 213.258C568.454 212.763 567.526 212.33 566.289 211.959C566.536 211.34 566.351 210.413 565.732 209.176C565.114 207.815 564.248 207.011 563.135 206.764C563.753 205.774 563.506 204.537 562.393 203.053C561.279 201.445 560.413 199.651 559.795 197.672C559.919 196.806 559.98 195.94 559.98 195.074C560.104 194.085 560.228 193.219 560.352 192.477C560.599 191.611 560.908 190.868 561.279 190.25C561.65 189.632 562.269 189.199 563.135 188.951C563.011 187.343 562.516 185.797 561.65 184.312C562.764 183.447 563.506 182.395 563.877 181.158C564.248 179.798 564.557 178.437 564.805 177.076C565.176 175.715 565.609 174.417 566.104 173.18C566.598 171.819 567.402 170.706 568.516 169.84C568.268 169.469 568.021 169.16 567.773 168.912C567.526 168.665 567.402 168.232 567.402 167.613C569.258 164.521 570.557 161.923 571.299 159.82C572.041 157.594 572.598 155.491 572.969 153.512C573.464 151.409 573.958 149.182 574.453 146.832C574.948 144.482 575.938 141.513 577.422 137.926C577.298 135.699 577.546 133.72 578.164 131.988C578.783 130.257 579.401 128.587 580.02 126.979C580.762 125.247 581.318 123.453 581.689 121.598C582.061 119.742 581.999 117.577 581.504 115.104C579.401 115.351 577.855 116.093 576.865 117.33C575.999 118.567 575.443 120.237 575.195 122.34C574.082 123.329 572.66 123.824 570.928 123.824C569.196 123.701 567.65 123.886 566.289 124.381ZM647.93 160.191C643.229 157.594 638.9 156.048 634.941 155.553C631.107 155.058 627.396 155.12 623.809 155.738C620.345 156.233 617.005 156.975 613.789 157.965C610.573 158.954 607.357 159.697 604.141 160.191C602.533 164.397 600.863 169.036 599.131 174.107C597.399 179.179 595.729 184.127 594.121 188.951C598.574 188.333 602.656 187.405 606.367 186.168C610.078 184.931 613.665 183.57 617.129 182.086C620.592 180.478 623.994 178.932 627.334 177.447C630.674 175.839 634.137 174.355 637.725 172.994C638.096 171.51 638.9 170.335 640.137 169.469C641.374 168.603 642.611 167.799 643.848 167.057C645.085 166.191 646.136 165.263 647.002 164.273C647.868 163.284 648.177 161.923 647.93 160.191ZM634.941 102.115C627.272 101.868 619.727 102.548 612.305 104.156C604.883 105.764 598.636 108.115 593.564 111.207C596.038 113.31 598.574 115.165 601.172 116.773C603.893 118.382 605.934 120.546 607.295 123.268C613.232 120.917 618.428 117.949 622.881 114.361C627.334 110.65 631.354 106.568 634.941 102.115ZM789.502 158.336C789.378 159.82 789.502 161.243 789.873 162.604C790.244 163.964 790.677 165.325 791.172 166.686C791.79 167.923 792.347 169.221 792.842 170.582C793.337 171.943 793.708 173.303 793.955 174.664C794.202 176.396 794.202 178.313 793.955 180.416C793.708 182.395 793.275 184.374 792.656 186.354C792.038 188.209 791.234 189.941 790.244 191.549C789.255 193.033 788.079 194.146 786.719 194.889C784.987 197.115 782.884 198.847 780.41 200.084C777.936 201.321 775.648 202.805 773.545 204.537C772.184 205.403 770.638 206.021 768.906 206.393C767.298 206.764 765.628 207.135 763.896 207.506C762.536 208.248 760.928 209.052 759.072 209.918C757.217 210.66 755.299 211.402 753.32 212.145C751.341 212.763 749.362 213.258 747.383 213.629C745.404 213.876 743.672 213.938 742.188 213.814C738.477 215.175 734.827 216.041 731.24 216.412C727.777 216.907 723.695 216.66 718.994 215.67C714.541 216.288 710.397 216.103 706.562 215.113C702.852 214.124 699.512 212.577 696.543 210.475C693.698 208.248 691.162 205.65 688.936 202.682C686.833 199.589 685.101 196.373 683.74 193.033C682.751 185.982 682.998 179.612 684.482 173.922C685.967 168.108 688.07 162.789 690.791 157.965C693.636 153.017 696.852 148.502 700.439 144.42C704.027 140.214 707.49 136.132 710.83 132.174C711.572 132.421 712.129 132.421 712.5 132.174C712.995 131.803 713.428 131.37 713.799 130.875C714.17 130.257 714.541 129.7 714.912 129.205C715.407 128.71 715.964 128.401 716.582 128.277C717.448 126.422 718.685 125.061 720.293 124.195C722.025 123.206 723.385 121.845 724.375 120.113C725.488 119.866 726.416 119.495 727.158 119C727.9 118.505 728.581 117.949 729.199 117.33C729.941 116.712 730.684 116.155 731.426 115.66C732.168 115.042 733.034 114.609 734.023 114.361V112.32C736.25 111.331 737.858 110.217 738.848 108.98C739.961 107.62 741.26 106.012 742.744 104.156C743.857 104.033 744.723 103.971 745.342 103.971C746.084 103.971 747.135 103.847 748.496 103.6C749.486 101.868 750.352 100.569 751.094 99.7031C751.96 98.8372 753.197 97.9095 754.805 96.9199C756.289 97.6621 757.897 98.1569 759.629 98.4043C761.484 98.6517 763.092 99.4557 764.453 100.816C764.577 102.053 764.948 103.043 765.566 103.785C766.185 104.404 766.865 105.022 767.607 105.641C768.35 106.135 769.03 106.692 769.648 107.311C770.391 107.929 770.885 108.795 771.133 109.908C771.628 110.032 771.937 109.97 772.061 109.723C772.308 109.475 772.679 109.413 773.174 109.537C773.545 111.269 773.978 112.444 774.473 113.062C774.967 113.557 775.462 114.609 775.957 116.217C775.339 117.454 774.844 118.753 774.473 120.113C774.225 121.35 773.483 122.278 772.246 122.896C772.122 123.762 772.37 124.257 772.988 124.381C773.607 124.381 773.978 124.69 774.102 125.309C774.225 126.422 774.04 127.226 773.545 127.721C776.514 132.545 779.173 137.678 781.523 143.121C783.874 148.44 786.533 153.512 789.502 158.336ZM766.309 175.963C766.803 174.602 767.422 173.489 768.164 172.623C769.03 171.757 769.525 170.458 769.648 168.727C769.03 167.737 768.659 166.995 768.535 166.5C768.411 165.882 768.35 164.954 768.35 163.717C765.628 159.882 763.278 155.8 761.299 151.471C759.32 147.018 757.093 142.874 754.619 139.039C754.372 139.534 753.939 140.029 753.32 140.523C752.702 141.018 752.021 140.895 751.279 140.152C751.032 141.142 750.599 141.884 749.98 142.379C749.362 142.75 748.682 142.936 747.939 142.936C747.197 142.812 746.393 142.626 745.527 142.379C744.785 142.008 744.105 141.575 743.486 141.08C739.899 143.925 736.312 146.708 732.725 149.43C729.137 152.151 725.921 155.305 723.076 158.893C722.581 159.14 722.272 159.264 722.148 159.264C722.025 159.14 721.654 159.202 721.035 159.449C720.046 161.799 718.809 163.964 717.324 165.943C715.964 167.799 714.603 169.716 713.242 171.695C711.882 173.674 710.706 175.777 709.717 178.004C708.727 180.23 708.171 182.828 708.047 185.797C710.15 187.529 712.624 188.58 715.469 188.951C718.314 189.322 721.221 189.384 724.189 189.137C727.282 188.889 730.251 188.518 733.096 188.023C736.064 187.405 738.786 187.096 741.26 187.096C746.455 185.859 750.908 184.251 754.619 182.271C758.33 180.169 762.227 178.066 766.309 175.963ZM852.588 165.387C851.722 166.129 850.98 167.057 850.361 168.17C849.743 169.16 849.124 170.211 848.506 171.324C847.887 172.685 847.207 173.984 846.465 175.221C845.723 176.458 844.795 177.571 843.682 178.561C843.063 180.416 842.445 181.9 841.826 183.014C841.208 184.003 840.218 185.178 838.857 186.539C837.62 191.487 834.714 196.868 830.137 202.682C830.013 203.795 829.642 204.908 829.023 206.021C828.529 207.011 827.972 208.001 827.354 208.99C827.106 209.361 826.859 209.794 826.611 210.289C826.364 210.66 826.178 210.969 826.055 211.217L825.684 213.072C825.065 214.062 824.385 214.928 823.643 215.67C822.9 216.412 822.22 217.092 821.602 217.711C821.354 218.082 820.921 218.577 820.303 219.195L817.52 220.309C808.49 219.072 802.985 214.247 801.006 205.836L801.191 203.98C801.439 203.362 801.624 202.743 801.748 202.125C801.995 201.383 802.243 200.641 802.49 199.898C802.985 198.167 803.542 196.435 804.16 194.703C804.902 192.971 805.954 191.425 807.314 190.064C807.562 189.199 808.118 187.838 808.984 185.982C809.85 184.003 811.335 181.096 813.438 177.262C815.169 174.293 816.53 171.943 817.52 170.211C818.509 168.479 819.313 167.118 819.932 166.129C818.695 164.15 817.21 162.356 815.479 160.748C813.87 157.656 812.448 154.687 811.211 151.842C810.098 148.997 809.232 146.461 808.613 144.234C808.49 142.626 808.304 141.266 808.057 140.152C807.809 139.039 807.562 137.864 807.314 136.627C806.943 135.266 806.634 133.906 806.387 132.545C806.139 131.184 806.016 129.762 806.016 128.277C805.397 127.411 805.026 126.546 804.902 125.68L805.273 123.824C805.645 122.958 805.706 121.845 805.459 120.484C805.212 119 804.902 117.516 804.531 116.031C804.284 114.794 803.975 113.434 803.604 111.949C803.356 110.465 803.294 108.98 803.418 107.496C803.542 106.012 803.913 104.651 804.531 103.414C805.273 102.053 806.449 100.878 808.057 99.8887L811.211 99.7031C812.324 100.322 813.376 100.94 814.365 101.559C815.479 102.053 816.53 102.61 817.52 103.229C818.88 103.847 820.179 104.465 821.416 105.084C822.653 105.702 823.952 106.507 825.312 107.496L826.611 110.094L829.023 112.135V114.176C829.147 114.671 829.209 115.351 829.209 116.217C829.209 117.825 829.456 118.814 829.951 119.186L830.693 121.412C830.693 123.144 830.879 124.814 831.25 126.422C831.621 127.906 831.992 129.329 832.363 130.689C832.734 132.05 833.105 133.473 833.477 134.957C833.848 136.441 833.91 138.049 833.662 139.781C834.404 139.41 835.023 138.977 835.518 138.482C835.765 138.235 836.012 138.049 836.26 137.926C836.507 137.802 836.755 137.617 837.002 137.369L847.949 122.525L847.578 120.67L851.475 116.959C852.464 115.969 853.392 115.042 854.258 114.176C855.247 113.31 856.051 112.382 856.67 111.393L858.711 109.908C862.669 103.723 868.298 99.8887 875.596 98.4043L878.193 98.0332L878.936 100.445C879.43 101.806 880.42 103.043 881.904 104.156C883.512 105.27 885.182 106.321 886.914 107.311L888.584 108.424C889.202 109.661 889.512 110.589 889.512 111.207C889.512 111.826 889.45 112.382 889.326 112.877L890.068 114.732C889.079 117.701 887.842 119.866 886.357 121.227C884.997 122.587 883.636 123.824 882.275 124.938C881.162 125.927 880.111 126.855 879.121 127.721C878.255 128.463 877.575 129.452 877.08 130.689L875.781 132.174C873.184 133.658 871.514 135.637 870.771 138.111L870.215 140.338H867.988C867.865 140.338 867.555 140.585 867.061 141.08C866.689 141.451 866.071 142.503 865.205 144.234C864.339 145.471 863.721 146.275 863.35 146.646C862.979 147.018 862.669 147.327 862.422 147.574C862.298 148.069 862.113 148.564 861.865 149.059C861.742 149.43 861.556 149.924 861.309 150.543C859.701 152.151 858.711 153.388 858.34 154.254C857.969 154.996 857.536 155.862 857.041 156.852C856.546 157.841 856.051 158.831 855.557 159.82C855.186 160.686 854.505 161.614 853.516 162.604L852.588 165.387Z" fill="#4866F5"/>
</g>
<defs>
<clipPath id="clip0_5_3">
<rect width="887" height="299" fill="white"/>
</clipPath>
</defs>
</svg>
