<svg width="603" height="580" viewBox="0 0 603 580" fill="none" xmlns="http://www.w3.org/2000/svg">
<path d="M40 42C40 40.8954 40.8954 40 42 40H561C562.105 40 563 40.8954 563 42V538C563 539.105 562.105 540 561 540H42C40.8954 540 40 539.105 40 538V42Z" fill="#404040"/>
<path d="M40 105C40 69.1015 69.1015 40 105 40H498C533.899 40 563 69.1015 563 105V475C563 510.899 533.899 540 498 540H105C69.1015 540 40 510.899 40 475V105Z" fill="#4866F5"/>
<path d="M88.2246 397.924C86.3561 397.924 83.46 397.644 79.5361 397.083C76.5465 393.907 73.8372 389.609 71.4082 384.19C69.166 378.585 67.391 372.699 66.083 366.533C64.9619 360.18 64.4014 353.921 64.4014 347.755C64.5882 341.402 65.7093 335.797 67.7646 330.938C67.7646 330.752 68.6055 328.509 70.2871 324.212C72.1556 319.914 74.4912 314.496 77.2939 307.956C80.0967 301.229 83.2731 293.849 86.8232 285.814C90.3734 277.593 93.9235 269.559 97.4736 261.711C101.024 253.863 104.387 246.763 107.563 240.41C110.927 233.87 113.823 228.826 116.252 225.275C117.934 222.66 119.428 220.137 120.736 217.708C122.231 215.279 123.632 213.037 124.94 210.981C126.996 207.618 128.864 204.535 130.546 201.732C132.414 198.743 134.376 196.127 136.432 193.885C138.674 191.456 141.103 189.4 143.719 187.719C146.335 185.85 149.511 184.262 153.248 182.954C155.49 183.888 157.452 184.916 159.134 186.037C160.815 186.971 162.31 188.186 163.618 189.681L164.459 193.604C164.833 194.912 165.393 195.847 166.141 196.407C167.075 196.781 167.822 196.968 168.383 196.968C170.812 197.528 172.867 198.182 174.549 198.93C176.417 199.49 178.379 199.864 180.435 200.051C181.182 201.172 181.836 202.293 182.396 203.414C183.144 204.535 183.891 205.563 184.639 206.497C188.376 211.916 191.459 217.147 193.888 222.192C196.317 227.237 196.317 232.749 193.888 238.729L194.168 241.812C195.102 243.119 195.569 244.334 195.569 245.455C195.569 246.576 195.382 248.164 195.009 250.22C194.822 251.715 194.635 253.396 194.448 255.265C194.448 256.946 194.729 258.815 195.289 260.87L197.251 263.112C200.241 264.607 203.137 265.354 205.939 265.354C209.676 265.354 213.04 264.514 216.029 262.832C219.019 261.15 221.822 259.469 224.438 257.787C226.493 256.292 228.361 255.078 230.043 254.144C231.911 253.209 233.687 252.555 235.368 252.182C239.292 248.445 242.842 245.175 246.019 242.372C249.382 239.382 252.839 236.393 256.389 233.403C263.115 227.985 269.655 222.192 276.008 216.026C282.361 209.674 287.406 201.826 291.143 192.483C293.198 191.175 295.534 190.521 298.149 190.521C300.765 190.521 303.381 191.082 305.997 192.203C308.613 193.137 311.229 194.258 313.845 195.566C314.405 195.94 314.872 196.22 315.246 196.407C315.807 196.594 316.367 196.874 316.928 197.248C316.928 199.303 317.769 201.172 319.45 202.854C320.384 203.601 321.038 204.068 321.412 204.255C321.786 204.442 322.16 204.629 322.533 204.815C324.028 205.75 325.243 206.59 326.177 207.338C327.298 208.085 328.139 209.113 328.699 210.421C330.381 215.466 333.184 219.39 337.107 222.192C336.734 224.248 336.827 226.303 337.388 228.358C337.948 230.227 338.602 232.095 339.35 233.964C339.723 234.711 340.004 235.459 340.19 236.206C340.377 236.767 340.658 237.514 341.031 238.448L334.865 237.888L335.706 244.054C336.267 247.23 335.986 250.78 334.865 254.704C333.931 258.628 332.81 261.711 331.502 263.953C331.876 269.559 332.062 274.043 332.062 277.406C332.062 280.583 331.876 283.572 331.502 286.375C331.128 289.178 330.474 291.887 329.54 294.503C328.793 296.932 327.765 299.548 326.457 302.351C327.204 316.551 325.523 329.537 321.412 341.309C317.488 353.08 313.191 364.104 308.52 374.381C307.959 375.689 307.398 376.903 306.838 378.024C306.277 379.146 305.81 380.267 305.437 381.388C303.381 381.948 301.513 382.602 299.831 383.35C298.149 384.097 296.561 384.938 295.066 385.872C293.011 387.18 290.956 388.301 288.9 389.235C286.845 389.983 284.696 390.356 282.454 390.356C273.485 383.817 268.814 372.512 268.44 356.443C268.254 340.374 271.71 319.914 278.811 295.063C280.118 294.129 280.679 292.728 280.492 290.859V287.776L277.689 287.496C276.755 287.496 275.914 287.59 275.167 287.776C274.42 287.963 273.859 288.804 273.485 290.299C267.506 294.596 260.966 299.081 253.866 303.752C246.953 308.236 239.759 312.44 232.285 316.364C224.811 320.101 217.15 323.278 209.303 325.894C201.642 328.323 194.168 329.537 186.881 329.537C168.196 329.537 154.089 320.008 144.56 300.949L142.037 295.904L139.234 300.389C138.674 301.323 137.646 303.191 136.151 305.994C134.843 308.61 133.442 311.693 131.947 315.243C130.639 318.793 129.425 322.437 128.304 326.174C127.369 329.911 127.089 333.181 127.463 335.983C125.221 338.039 122.979 340.374 120.736 342.99C118.681 345.606 117.186 348.596 116.252 351.959C115.878 352.893 115.785 353.827 115.972 354.762C116.159 355.509 116.439 356.35 116.812 357.284C116.626 358.592 116.252 359.526 115.691 360.087C115.131 360.647 114.477 361.208 113.729 361.769C112.795 362.703 111.861 363.73 110.927 364.852C109.993 365.786 109.152 366.907 108.404 368.215C108.031 369.336 107.75 370.55 107.563 371.858C107.377 372.979 107.19 374.007 107.003 374.941C107.003 376.997 106.723 378.398 106.162 379.146C104.294 383.069 102.612 386.339 101.117 388.955C99.8092 391.384 98.5013 393.253 97.1934 394.561C95.8854 395.868 94.484 396.709 92.9893 397.083C91.6813 397.644 90.0931 397.924 88.2246 397.924ZM365.695 258.628C357.848 255.451 351.308 250.967 346.076 245.175C341.031 239.382 336.921 232.562 333.744 224.715C335.613 219.67 338.602 215.466 342.713 212.103C346.824 208.552 351.401 205.563 356.446 203.134C361.678 200.705 367.19 198.743 372.982 197.248C378.775 195.753 384.38 194.445 389.799 193.324C390.92 193.698 391.48 193.698 391.48 193.324C391.48 192.951 391.948 193.137 392.882 193.885C399.608 191.829 407.363 189.868 416.145 187.999C424.926 185.944 434.269 185.196 444.172 185.757C445.48 185.009 447.068 184.636 448.937 184.636C450.805 184.449 452.767 184.355 454.822 184.355C456.878 184.355 458.84 184.355 460.708 184.355C462.576 184.169 464.165 183.795 465.473 183.234C466.594 184.542 468.275 185.383 470.518 185.757C472.76 185.944 475.095 186.878 477.524 188.56C478.272 188.746 478.272 188.466 477.524 187.719C476.777 186.785 476.87 186.131 477.805 185.757C480.234 185.757 482.382 186.317 484.251 187.438C486.119 188.56 487.801 189.868 489.296 191.362C490.978 192.67 492.472 193.885 493.78 195.006C495.275 196.127 496.863 196.688 498.545 196.688C500.227 198.743 502.188 200.705 504.431 202.573C506.86 204.255 509.102 206.03 511.157 207.898C513.399 209.767 515.174 211.822 516.482 214.064C517.977 216.307 518.725 218.829 518.725 221.632C518.538 222.753 518.911 223.407 519.846 223.594C520.78 223.781 521.434 224.341 521.808 225.275C521.994 232.189 520.873 238.168 518.444 243.213C516.202 248.258 513.306 252.929 509.756 257.227C506.206 261.337 502.375 265.261 498.265 268.998C494.341 272.735 490.697 276.752 487.334 281.05C489.576 283.853 492.099 286.468 494.901 288.897C497.891 291.14 500.881 293.382 503.87 295.624C506.86 297.866 509.662 300.295 512.278 302.911C515.081 305.34 517.417 308.143 519.285 311.319C519.846 312.44 521.06 313.188 522.929 313.562C523.489 315.804 524.237 318.139 525.171 320.568C526.292 322.811 527.32 325.053 528.254 327.295C529.188 329.35 529.749 331.219 529.936 332.9C530.122 334.582 529.655 335.983 528.534 337.104C529.842 337.852 530.59 339.066 530.776 340.748C530.963 342.243 530.963 343.457 530.776 344.392C526.666 349.437 523.863 352.987 522.368 355.042C520.873 357.097 519.752 358.592 519.005 359.526C518.257 360.461 517.51 361.301 516.763 362.049C516.015 362.796 514.334 364.291 511.718 366.533C501.815 372.512 491.445 377.931 480.607 382.789C469.957 387.46 458.84 390.637 447.255 392.318C446.321 393.626 444.919 394.654 443.051 395.401C441.369 396.336 439.407 397.083 437.165 397.644C434.923 398.204 432.494 398.671 429.878 399.045C427.449 399.419 425.207 399.792 423.151 400.166C422.217 399.792 421.657 399.138 421.47 398.204C421.47 397.457 421.003 396.896 420.068 396.522C419.882 398.765 418.854 399.886 416.985 399.886C415.304 400.073 413.155 399.699 410.539 398.765C407.923 397.83 405.214 396.522 402.411 394.841C399.608 393.159 397.179 391.571 395.124 390.076C394.19 391.758 392.975 393.533 391.48 395.401C390.173 397.27 388.771 398.578 387.276 399.325C384.66 398.951 382.699 398.671 381.391 398.484C380.27 398.298 379.148 398.765 378.027 399.886C376.533 399.138 375.411 398.298 374.664 397.363C373.917 396.616 373.169 395.775 372.422 394.841C371.674 394.093 370.834 393.439 369.899 392.879C368.965 392.132 367.564 391.478 365.695 390.917C366.069 389.983 365.789 388.581 364.854 386.713C363.92 384.658 362.612 383.443 360.931 383.069C361.865 381.575 361.491 379.706 359.81 377.464C358.128 375.035 356.82 372.326 355.886 369.336C356.073 368.028 356.166 366.72 356.166 365.412C356.353 363.917 356.54 362.609 356.727 361.488C357.1 360.18 357.567 359.059 358.128 358.125C358.688 357.191 359.623 356.537 360.931 356.163C360.744 353.734 359.996 351.398 358.688 349.156C360.37 347.848 361.491 346.26 362.052 344.392C362.612 342.336 363.079 340.281 363.453 338.226C364.014 336.17 364.668 334.208 365.415 332.34C366.162 330.285 367.377 328.603 369.059 327.295C368.685 326.734 368.311 326.267 367.938 325.894C367.564 325.52 367.377 324.866 367.377 323.932C370.18 319.26 372.142 315.337 373.263 312.16C374.384 308.797 375.225 305.62 375.785 302.631C376.533 299.454 377.28 296.091 378.027 292.541C378.775 288.991 380.27 284.507 382.512 279.088C382.325 275.725 382.699 272.735 383.633 270.119C384.567 267.503 385.501 264.981 386.436 262.552C387.557 259.936 388.397 257.227 388.958 254.424C389.519 251.621 389.425 248.351 388.678 244.614C385.501 244.988 383.166 246.109 381.671 247.978C380.363 249.846 379.522 252.368 379.148 255.545C377.467 257.04 375.318 257.787 372.702 257.787C370.086 257.6 367.751 257.881 365.695 258.628ZM489.016 312.721C481.915 308.797 475.376 306.461 469.396 305.714C463.604 304.966 457.999 305.06 452.58 305.994C447.348 306.742 442.303 307.863 437.445 309.357C432.587 310.852 427.729 311.973 422.871 312.721C420.442 319.074 417.92 326.08 415.304 333.741C412.688 341.402 410.165 348.876 407.736 356.163C414.463 355.229 420.629 353.827 426.234 351.959C431.84 350.09 437.258 348.035 442.49 345.793C447.722 343.364 452.86 341.028 457.905 338.786C462.95 336.357 468.182 334.115 473.601 332.06C474.161 329.817 475.376 328.042 477.244 326.734C479.113 325.426 480.981 324.212 482.85 323.091C484.718 321.783 486.306 320.382 487.614 318.887C488.922 317.392 489.389 315.337 489.016 312.721ZM469.396 224.995C457.812 224.621 446.414 225.649 435.203 228.078C423.992 230.507 414.556 234.057 406.896 238.729C410.632 241.905 414.463 244.708 418.387 247.137C422.497 249.566 425.58 252.836 427.636 256.946C436.604 253.396 444.452 248.912 451.179 243.493C457.905 237.888 463.978 231.722 469.396 224.995Z" fill="#FFFF00"/>
<path d="M42 41H561V39H42V41ZM562 42V538H564V42H562ZM561 539H42V541H561V539ZM41 538V42H39V538H41ZM42 539C41.4477 539 41 538.552 41 538H39C39 539.657 40.3432 541 42 541V539ZM562 538C562 538.552 561.552 539 561 539V541C562.657 541 564 539.657 564 538H562ZM561 41C561.552 41 562 41.4477 562 42H564C564 40.3431 562.657 39 561 39V41ZM42 39C40.3431 39 39 40.3432 39 42H41C41 41.4477 41.4477 41 42 41V39Z" fill="white" fill-opacity="0.1"/>
<rect x="40" y="8" width="55.3833" height="26" rx="2" fill="#404040"/>
<rect x="40.5" y="8.5" width="54.3833" height="25" rx="1.5" stroke="black" stroke-opacity="0.14902"/>
<path d="M49.3438 18C49.2969 17.6042 49.1068 17.2969 48.7734 17.0781C48.4401 16.8594 48.0313 16.75 47.5469 16.75C47.1927 16.75 46.8828 16.8073 46.6172 16.9219C46.3542 17.0365 46.1484 17.194 46 17.3945C45.8542 17.5951 45.7813 17.8229 45.7813 18.0781C45.7813 18.2917 45.832 18.4753 45.9336 18.6289C46.0378 18.7799 46.1706 18.9062 46.332 19.0078C46.4935 19.1068 46.6628 19.1888 46.8398 19.2539C47.0169 19.3164 47.1797 19.3672 47.3281 19.4062L48.1406 19.625C48.349 19.6797 48.5807 19.7552 48.8359 19.8516C49.0938 19.9479 49.3398 20.0794 49.5742 20.2461C49.8112 20.4102 50.0065 20.6211 50.1602 20.8789C50.3138 21.1367 50.3906 21.4531 50.3906 21.8281C50.3906 22.2604 50.2773 22.651 50.0508 23C49.8268 23.349 49.4987 23.6263 49.0664 23.832C48.6367 24.0378 48.1146 24.1406 47.5 24.1406C46.9271 24.1406 46.431 24.0482 46.0117 23.8633C45.5951 23.6784 45.2669 23.4206 45.0273 23.0898C44.7904 22.7591 44.6563 22.375 44.625 21.9375H45.625C45.651 22.2396 45.7526 22.4896 45.9297 22.6875C46.1094 22.8828 46.3359 23.0286 46.6094 23.125C46.8854 23.2187 47.1823 23.2656 47.5 23.2656C47.8698 23.2656 48.2018 23.2057 48.4961 23.0859C48.7904 22.9635 49.0234 22.7943 49.1953 22.5781C49.3672 22.3594 49.4531 22.1042 49.4531 21.8125C49.4531 21.5469 49.3789 21.3307 49.2305 21.1641C49.082 20.9974 48.8867 20.862 48.6445 20.7578C48.4023 20.6536 48.1406 20.5625 47.8594 20.4844L46.875 20.2031C46.25 20.0234 45.7552 19.7669 45.3906 19.4336C45.026 19.1003 44.8438 18.6641 44.8438 18.125C44.8438 17.6771 44.9648 17.2865 45.207 16.9531C45.4518 16.6172 45.7799 16.3568 46.1914 16.1719C46.6055 15.9844 47.0677 15.8906 47.5781 15.8906C48.0938 15.8906 48.5521 15.9831 48.9531 16.168C49.3542 16.3503 49.6719 16.6003 49.9062 16.918C50.1432 17.2357 50.2682 17.5964 50.2813 18H49.3438ZM54.374 24.125C53.7959 24.125 53.2972 23.9974 52.8779 23.7422C52.4613 23.4844 52.1396 23.125 51.9131 22.6641C51.6891 22.2005 51.5771 21.6615 51.5771 21.0469C51.5771 20.4323 51.6891 19.8906 51.9131 19.4219C52.1396 18.9505 52.4548 18.5833 52.8584 18.3203C53.2646 18.0547 53.7386 17.9219 54.2803 17.9219C54.5928 17.9219 54.9014 17.974 55.2061 18.0781C55.5107 18.1823 55.7881 18.3516 56.0381 18.5859C56.2881 18.8177 56.4873 19.125 56.6357 19.5078C56.7842 19.8906 56.8584 20.362 56.8584 20.9219V21.3125H52.2334V20.5156H55.9209C55.9209 20.1771 55.8532 19.875 55.7178 19.6094C55.585 19.3437 55.3949 19.1341 55.1475 18.9805C54.9027 18.8268 54.6136 18.75 54.2803 18.75C53.9131 18.75 53.5954 18.8411 53.3271 19.0234C53.0615 19.2031 52.8571 19.4375 52.7139 19.7266C52.5706 20.0156 52.499 20.3255 52.499 20.6562V21.1875C52.499 21.6406 52.5771 22.0247 52.7334 22.3398C52.8923 22.6523 53.1123 22.8906 53.3936 23.0547C53.6748 23.2161 54.0016 23.2969 54.374 23.2969C54.6162 23.2969 54.835 23.263 55.0303 23.1953C55.2282 23.125 55.3988 23.0208 55.542 22.8828C55.6852 22.7422 55.7959 22.5677 55.874 22.3594L56.7646 22.6094C56.6709 22.9115 56.5133 23.1771 56.292 23.4062C56.0706 23.6328 55.7972 23.8099 55.4717 23.9375C55.1462 24.0625 54.7803 24.125 54.374 24.125ZM60.6982 24.125C60.1357 24.125 59.6514 23.9922 59.2451 23.7266C58.8389 23.4609 58.5264 23.0951 58.3076 22.6289C58.0889 22.1628 57.9795 21.6302 57.9795 21.0312C57.9795 20.4219 58.0915 19.8841 58.3154 19.418C58.542 18.9492 58.8571 18.5833 59.2607 18.3203C59.667 18.0547 60.141 17.9219 60.6826 17.9219C61.1045 17.9219 61.4847 18 61.8232 18.1562C62.1618 18.3125 62.4391 18.5312 62.6553 18.8125C62.8714 19.0937 63.0055 19.4219 63.0576 19.7969H62.1357C62.0654 19.5234 61.9092 19.2812 61.667 19.0703C61.4274 18.8568 61.1045 18.75 60.6982 18.75C60.3389 18.75 60.0238 18.8437 59.7529 19.0312C59.4847 19.2161 59.2751 19.4779 59.124 19.8164C58.9756 20.1523 58.9014 20.5469 58.9014 21C58.9014 21.4635 58.9743 21.8672 59.1201 22.2109C59.2686 22.5547 59.4769 22.8216 59.7451 23.0117C60.016 23.2018 60.3337 23.2969 60.6982 23.2969C60.9378 23.2969 61.1553 23.2552 61.3506 23.1719C61.5459 23.0885 61.7113 22.9688 61.8467 22.8125C61.9821 22.6562 62.0785 22.4687 62.1357 22.25H63.0576C63.0055 22.6042 62.8766 22.9232 62.6709 23.207C62.4678 23.4883 62.1982 23.7122 61.8623 23.8789C61.529 24.043 61.141 24.125 60.6982 24.125ZM67.0146 18V18.7812H63.9053V18H67.0146ZM64.8115 16.5625H65.7334V22.2812C65.7334 22.5417 65.7712 22.737 65.8467 22.8672C65.9248 22.9948 66.0238 23.0807 66.1436 23.125C66.266 23.1667 66.3949 23.1875 66.5303 23.1875C66.6318 23.1875 66.7152 23.1823 66.7803 23.1719C66.8454 23.1589 66.8975 23.1484 66.9365 23.1406L67.124 23.9687C67.0615 23.9922 66.9743 24.0156 66.8623 24.0391C66.7503 24.0651 66.6084 24.0781 66.4365 24.0781C66.1761 24.0781 65.9209 24.0221 65.6709 23.9102C65.4235 23.7982 65.2178 23.6276 65.0537 23.3984C64.8923 23.1693 64.8115 22.8802 64.8115 22.5312V16.5625ZM68.4014 24V18H69.3232V24H68.4014ZM68.8701 17C68.6904 17 68.5355 16.9388 68.4053 16.8164C68.2777 16.694 68.2139 16.5469 68.2139 16.375C68.2139 16.2031 68.2777 16.056 68.4053 15.9336C68.5355 15.8112 68.6904 15.75 68.8701 15.75C69.0498 15.75 69.2035 15.8112 69.3311 15.9336C69.4613 16.056 69.5264 16.2031 69.5264 16.375C69.5264 16.5469 69.4613 16.694 69.3311 16.8164C69.2035 16.9388 69.0498 17 68.8701 17ZM73.4492 24.125C72.9076 24.125 72.4323 23.9961 72.0234 23.7383C71.6172 23.4805 71.2995 23.1198 71.0703 22.6562C70.8438 22.1927 70.7305 21.651 70.7305 21.0312C70.7305 20.4062 70.8438 19.8607 71.0703 19.3945C71.2995 18.9284 71.6172 18.5664 72.0234 18.3086C72.4323 18.0508 72.9076 17.9219 73.4492 17.9219C73.9909 17.9219 74.4648 18.0508 74.8711 18.3086C75.2799 18.5664 75.5977 18.9284 75.8242 19.3945C76.0534 19.8607 76.168 20.4062 76.168 21.0312C76.168 21.651 76.0534 22.1927 75.8242 22.6562C75.5977 23.1198 75.2799 23.4805 74.8711 23.7383C74.4648 23.9961 73.9909 24.125 73.4492 24.125ZM73.4492 23.2969C73.8607 23.2969 74.1992 23.1914 74.4648 22.9805C74.7305 22.7695 74.9271 22.4922 75.0547 22.1484C75.1823 21.8047 75.2461 21.4323 75.2461 21.0312C75.2461 20.6302 75.1823 20.2565 75.0547 19.9102C74.9271 19.5638 74.7305 19.2839 74.4648 19.0703C74.1992 18.8568 73.8607 18.75 73.4492 18.75C73.0378 18.75 72.6992 18.8568 72.4336 19.0703C72.168 19.2839 71.9714 19.5638 71.8438 19.9102C71.7161 20.2565 71.6523 20.6302 71.6523 21.0312C71.6523 21.4323 71.7161 21.8047 71.8438 22.1484C71.9714 22.4922 72.168 22.7695 72.4336 22.9805C72.6992 23.1914 73.0378 23.2969 73.4492 23.2969ZM78.4971 20.3906V24H77.5752V18H78.4658V18.9375H78.5439C78.6846 18.6328 78.8981 18.388 79.1846 18.2031C79.471 18.0156 79.8408 17.9219 80.2939 17.9219C80.7002 17.9219 81.0557 18.0052 81.3604 18.1719C81.665 18.3359 81.902 18.5859 82.0713 18.9219C82.2406 19.2552 82.3252 19.6771 82.3252 20.1875V24H81.4033V20.25C81.4033 19.7786 81.2809 19.4115 81.0361 19.1484C80.7913 18.8828 80.4554 18.75 80.0283 18.75C79.734 18.75 79.471 18.8138 79.2393 18.9414C79.0101 19.069 78.8291 19.2552 78.6963 19.5C78.5635 19.7448 78.4971 20.0417 78.4971 20.3906ZM89.9004 16V24H88.9316V17.0156H88.8848L86.9316 18.3125V17.3281L88.9316 16H89.9004Z" fill="white"/>
</svg>
