<svg version="1.1" id="Layer_1" xmlns="http://www.w3.org/2000/svg" xmlns:xlink="http://www.w3.org/1999/xlink" x="0px" y="0px"
	 width="100%" viewBox="0 0 128 128" enable-background="new 0 0 128 128" xml:space="preserve">
<path fill="#546DFD" opacity="1.000000" stroke="none" 
	d="
M129.000000,81.000000 
	C129.000000,94.687561 129.000000,108.375122 128.738251,122.204491 
	C126.650993,124.564201 124.825500,126.782104 123.000000,129.000000 
	C84.645775,129.000000 46.291542,129.000000 7.795459,128.740326 
	C5.435735,126.653770 3.217866,124.826889 0.999999,123.000000 
	C1.000000,84.645775 1.000000,46.291542 1.259632,7.795476 
	C3.346176,5.435758 5.173088,3.217879 7.000000,1.000000 
	C45.354229,1.000000 83.708458,1.000000 122.202309,1.255263 
	C124.561287,3.340350 126.780647,5.170175 129.000000,7.000000 
	C129.000000,29.354227 129.000000,51.708454 128.711212,74.299080 
	C126.318748,70.407829 124.215096,66.280174 122.002525,61.938824 
	C126.874069,58.898273 127.979774,53.259281 126.751671,47.284203 
	C125.584351,41.604900 121.421959,37.962135 115.769936,37.101158 
	C110.259506,36.261742 104.444557,35.472572 99.042007,36.359337 
	C92.042496,37.508224 85.653114,40.761040 83.276978,48.836342 
	C85.990417,48.724468 88.458168,48.133804 90.810760,47.240025 
	C96.576630,45.049503 102.285492,42.742386 108.606934,44.987560 
	C112.795647,46.475262 114.638916,49.792648 113.991211,54.412224 
	C113.417389,58.504807 110.781853,58.955196 107.279083,59.138199 
	C105.372238,59.237823 103.551514,60.985897 101.362030,61.950859 
	C100.811905,61.887375 100.591675,61.863510 100.468857,61.414528 
	C101.006027,57.538685 101.582390,54.096897 101.809227,50.632229 
	C101.885529,49.466774 101.271004,47.379337 100.624725,47.231400 
	C99.394684,46.949841 97.413536,47.322403 96.638557,48.206905 
	C94.819359,50.283188 92.934143,52.635853 92.130043,55.206474 
	C89.401047,63.930859 87.129662,72.798386 84.635185,81.785179 
	C83.951805,81.593338 82.553452,81.200790 81.385582,80.872948 
	C80.920082,78.506416 80.504562,76.393974 79.908470,73.363579 
	C75.411697,77.254379 71.731361,80.438766 68.051025,83.623146 
	C67.502312,83.397987 66.953590,83.172829 66.404869,82.947670 
	C66.697037,80.540565 66.870247,78.111771 67.304550,75.730598 
	C68.430908,69.555092 70.208359,63.446793 70.744865,57.227043 
	C71.599609,47.318024 65.496979,41.789894 57.061577,44.327908 
	C54.643661,45.055405 52.496792,46.683750 50.180511,47.923191 
	C49.001305,34.108242 35.490059,31.201042 24.884277,43.063072 
	C21.367039,34.808662 9.417606,33.321831 4.253635,40.725445 
	C3.024158,42.488148 3.261836,45.274185 2.824683,47.589531 
	C4.845436,47.175159 7.074778,47.166954 8.842195,46.259285 
	C12.205674,44.531944 13.881621,45.031116 13.900847,48.848892 
	C13.917285,52.112820 13.020473,55.374744 12.617490,58.648617 
	C11.385915,68.654060 9.954018,78.644035 9.097012,88.682457 
	C8.678440,93.585335 11.343300,95.218971 16.076792,93.877365 
	C20.915379,92.505966 22.969280,89.295410 21.864536,82.453682 
	C20.080877,71.407364 24.425520,62.121120 29.343544,52.924160 
	C30.247231,51.234222 31.786047,49.724304 33.360172,48.585205 
	C36.797646,46.097721 39.626881,47.199635 39.805382,51.409332 
	C39.963806,55.145584 39.234936,58.974598 38.496101,62.682640 
	C36.790661,71.241844 34.670444,79.721924 33.136921,88.308838 
	C32.833584,90.007347 34.071568,93.353928 35.184860,93.637215 
	C37.284679,94.171547 40.559921,93.787613 41.968254,92.393227 
	C43.693680,90.684875 44.843662,87.526337 44.779255,85.032585 
	C44.526535,75.247253 47.900219,66.865814 53.755901,59.366135 
	C55.080688,57.669411 57.313648,56.681782 59.128567,55.367752 
	C59.539463,55.694027 59.950363,56.020302 60.361259,56.346577 
	C60.034870,59.096565 59.888054,61.882458 59.346764,64.589470 
	C57.990307,71.373169 55.911617,78.060585 55.149460,84.901024 
	C54.432583,91.335052 58.406780,94.760292 64.745979,92.987793 
	C69.906845,91.544769 74.574554,88.338058 78.618607,86.331398 
	C84.086861,88.740196 89.508743,91.954025 95.371017,93.538536 
	C107.457016,96.805237 123.426468,95.835945 129.000000,81.000000 
z"/>
<path fill="#FBFC06" opacity="1.000000" stroke="none" 
	d="
M129.000000,80.571533 
	C123.426468,95.835945 107.457016,96.805237 95.371017,93.538536 
	C89.508743,91.954025 84.086861,88.740196 78.618607,86.331398 
	C74.574554,88.338058 69.906845,91.544769 64.745979,92.987793 
	C58.406780,94.760292 54.432583,91.335052 55.149460,84.901024 
	C55.911617,78.060585 57.990307,71.373169 59.346764,64.589470 
	C59.888054,61.882458 60.034870,59.096565 60.361259,56.346577 
	C59.950363,56.020302 59.539463,55.694027 59.128567,55.367752 
	C57.313648,56.681782 55.080688,57.669411 53.755901,59.366135 
	C47.900219,66.865814 44.526535,75.247253 44.779255,85.032585 
	C44.843662,87.526337 43.693680,90.684875 41.968254,92.393227 
	C40.559921,93.787613 37.284679,94.171547 35.184860,93.637215 
	C34.071568,93.353928 32.833584,90.007347 33.136921,88.308838 
	C34.670444,79.721924 36.790661,71.241844 38.496101,62.682640 
	C39.234936,58.974598 39.963806,55.145584 39.805382,51.409332 
	C39.626881,47.199635 36.797646,46.097721 33.360172,48.585205 
	C31.786047,49.724304 30.247231,51.234222 29.343544,52.924160 
	C24.425520,62.121120 20.080877,71.407364 21.864536,82.453682 
	C22.969280,89.295410 20.915379,92.505966 16.076792,93.877365 
	C11.343300,95.218971 8.678440,93.585335 9.097012,88.682457 
	C9.954018,78.644035 11.385915,68.654060 12.617490,58.648617 
	C13.020473,55.374744 13.917285,52.112820 13.900847,48.848892 
	C13.881621,45.031116 12.205674,44.531944 8.842195,46.259285 
	C7.074778,47.166954 4.845436,47.175159 2.824683,47.589531 
	C3.261836,45.274185 3.024158,42.488148 4.253635,40.725445 
	C9.417606,33.321831 21.367039,34.808662 24.884277,43.063072 
	C35.490059,31.201042 49.001305,34.108242 50.180511,47.923191 
	C52.496792,46.683750 54.643661,45.055405 57.061577,44.327908 
	C65.496979,41.789894 71.599609,47.318024 70.744865,57.227043 
	C70.208359,63.446793 68.430908,69.555092 67.304550,75.730598 
	C66.870247,78.111771 66.697037,80.540565 66.404869,82.947670 
	C66.953590,83.172829 67.502312,83.397987 68.051025,83.623146 
	C71.731361,80.438766 75.411697,77.254379 79.908470,73.363579 
	C80.504562,76.393974 80.920082,78.506416 81.385582,80.872948 
	C82.553452,81.200790 83.951805,81.593338 84.635185,81.785179 
	C87.129662,72.798386 89.401047,63.930859 92.130043,55.206474 
	C92.934143,52.635853 94.819359,50.283188 96.638557,48.206905 
	C97.413536,47.322403 99.394684,46.949841 100.624725,47.231400 
	C101.271004,47.379337 101.885529,49.466774 101.809227,50.632229 
	C101.582390,54.096897 101.006027,57.538685 100.304634,61.753288 
	C99.245216,67.902695 98.433823,73.286263 97.652901,78.674240 
	C96.545776,86.312889 96.692841,86.465508 104.531471,86.219887 
	C104.863922,86.209465 105.195831,86.178024 105.527649,86.151894 
	C111.234917,85.702583 114.827652,82.098427 115.006157,76.644112 
	C115.231491,69.758644 113.569572,67.810936 106.737801,66.925514 
	C103.825691,66.548096 101.626556,65.421814 101.691940,61.990479 
	C103.551514,60.985897 105.372238,59.237823 107.279083,59.138199 
	C110.781853,58.955196 113.417389,58.504807 113.991211,54.412224 
	C114.638916,49.792648 112.795647,46.475262 108.606934,44.987560 
	C102.285492,42.742386 96.576630,45.049503 90.810760,47.240025 
	C88.458168,48.133804 85.990417,48.724468 83.276978,48.836342 
	C85.653114,40.761040 92.042496,37.508224 99.042007,36.359337 
	C104.444557,35.472572 110.259506,36.261742 115.769936,37.101158 
	C121.421959,37.962135 125.584351,41.604900 126.751671,47.284203 
	C127.979774,53.259281 126.874069,58.898273 122.002525,61.938824 
	C124.215096,66.280174 126.318748,70.407829 128.711212,74.767738 
	C129.000000,76.714355 129.000000,78.428719 129.000000,80.571533 
z"/>
<path fill="#000000" opacity="1.000000" stroke="none" 
	d="
M129.000000,6.500528 
	C126.780647,5.170175 124.561287,3.340350 122.670967,1.255263 
	C124.913231,1.000000 126.826454,1.000000 129.000000,1.000000 
	C129.000000,2.663430 129.000000,4.332244 129.000000,6.500528 
z"/>
<path fill="#000000" opacity="1.000000" stroke="none" 
	d="
M123.499474,129.000000 
	C124.825500,126.782104 126.650993,124.564201 128.738251,122.673149 
	C129.000000,124.913231 129.000000,126.826454 129.000000,129.000000 
	C127.336571,129.000000 125.667763,129.000000 123.499474,129.000000 
z"/>
<path fill="#000000" opacity="1.000000" stroke="none" 
	d="
M6.500528,1.000000 
	C5.173088,3.217879 3.346176,5.435758 1.259632,7.326818 
	C1.000000,5.086773 1.000000,3.173546 1.000000,1.000000 
	C2.663430,1.000000 4.332244,1.000000 6.500528,1.000000 
z"/>
<path fill="#000000" opacity="1.000000" stroke="none" 
	d="
M0.999999,123.499474 
	C3.217866,124.826889 5.435735,126.653770 7.326801,128.740326 
	C5.086773,129.000000 3.173547,129.000000 1.000000,129.000000 
	C1.000000,127.336571 1.000000,125.667763 0.999999,123.499474 
z"/>
<path fill="#556FFB" opacity="1.000000" stroke="none" 
	d="
M101.362030,61.950859 
	C101.626556,65.421814 103.825691,66.548096 106.737801,66.925514 
	C113.569572,67.810936 115.231491,69.758644 115.006157,76.644112 
	C114.827652,82.098427 111.234917,85.702583 105.527649,86.151894 
	C105.195831,86.178024 104.863922,86.209465 104.531471,86.219887 
	C96.692841,86.465508 96.545776,86.312889 97.652901,78.674240 
	C98.433823,73.286263 99.245216,67.902695 100.207230,62.178398 
	C100.591675,61.863510 100.811905,61.887375 101.362030,61.950859 
z"/>
</svg>