<svg width="523" height="500" viewBox="0 0 523 500" fill="none" xmlns="http://www.w3.org/2000/svg">
<g clip-path="url(#clip0_3_8)">
<path d="M0 65C0 29.1015 29.1015 0 65 0H458C493.899 0 523 29.1015 523 65V435C523 470.899 493.899 500 458 500H65C29.1015 500 0 470.899 0 435V65Z" fill="#4866F5"/>
<path d="M48.2246 357.924C46.3561 357.924 43.46 357.644 39.5361 357.083C36.5465 353.907 33.8372 349.609 31.4082 344.19C29.166 338.585 27.391 332.699 26.083 326.533C24.9619 320.18 24.4014 313.921 24.4014 307.755C24.5882 301.402 25.7093 295.797 27.7646 290.938C27.7646 290.752 28.6055 288.509 30.2871 284.212C32.1556 279.914 34.4912 274.496 37.2939 267.956C40.0967 261.229 43.2731 253.849 46.8232 245.814C50.3734 237.593 53.9235 229.559 57.4736 221.711C61.0238 213.863 64.387 206.763 67.5635 200.41C70.9268 193.87 73.8229 188.826 76.252 185.275C77.9336 182.66 79.4284 180.137 80.7363 177.708C82.2311 175.279 83.6325 173.037 84.9404 170.981C86.9958 167.618 88.8643 164.535 90.5459 161.732C92.4144 158.743 94.3763 156.127 96.4316 153.885C98.6738 151.456 101.103 149.4 103.719 147.719C106.335 145.85 109.511 144.262 113.248 142.954C115.49 143.888 117.452 144.916 119.134 146.037C120.815 146.971 122.31 148.186 123.618 149.681L124.459 153.604C124.833 154.912 125.393 155.847 126.141 156.407C127.075 156.781 127.822 156.968 128.383 156.968C130.812 157.528 132.867 158.182 134.549 158.93C136.417 159.49 138.379 159.864 140.435 160.051C141.182 161.172 141.836 162.293 142.396 163.414C143.144 164.535 143.891 165.563 144.639 166.497C148.376 171.916 151.459 177.147 153.888 182.192C156.317 187.237 156.317 192.749 153.888 198.729L154.168 201.812C155.102 203.119 155.569 204.334 155.569 205.455C155.569 206.576 155.382 208.164 155.009 210.22C154.822 211.715 154.635 213.396 154.448 215.265C154.448 216.946 154.729 218.815 155.289 220.87L157.251 223.112C160.241 224.607 163.137 225.354 165.939 225.354C169.676 225.354 173.04 224.514 176.029 222.832C179.019 221.15 181.822 219.469 184.438 217.787C186.493 216.292 188.361 215.078 190.043 214.144C191.911 213.209 193.687 212.555 195.368 212.182C199.292 208.445 202.842 205.175 206.019 202.372C209.382 199.382 212.839 196.393 216.389 193.403C223.115 187.985 229.655 182.192 236.008 176.026C242.361 169.674 247.406 161.826 251.143 152.483C253.198 151.175 255.534 150.521 258.149 150.521C260.765 150.521 263.381 151.082 265.997 152.203C268.613 153.137 271.229 154.258 273.845 155.566C274.405 155.94 274.872 156.22 275.246 156.407C275.807 156.594 276.367 156.874 276.928 157.248C276.928 159.303 277.769 161.172 279.45 162.854C280.384 163.601 281.038 164.068 281.412 164.255C281.786 164.442 282.16 164.629 282.533 164.815C284.028 165.75 285.243 166.59 286.177 167.338C287.298 168.085 288.139 169.113 288.699 170.421C290.381 175.466 293.184 179.39 297.107 182.192C296.734 184.248 296.827 186.303 297.388 188.358C297.948 190.227 298.602 192.095 299.35 193.964C299.723 194.711 300.004 195.459 300.19 196.206C300.377 196.767 300.658 197.514 301.031 198.448L294.865 197.888L295.706 204.054C296.267 207.23 295.986 210.78 294.865 214.704C293.931 218.628 292.81 221.711 291.502 223.953C291.876 229.559 292.062 234.043 292.062 237.406C292.062 240.583 291.876 243.572 291.502 246.375C291.128 249.178 290.474 251.887 289.54 254.503C288.793 256.932 287.765 259.548 286.457 262.351C287.204 276.551 285.523 289.537 281.412 301.309C277.488 313.08 273.191 324.104 268.52 334.381C267.959 335.689 267.398 336.903 266.838 338.024C266.277 339.146 265.81 340.267 265.437 341.388C263.381 341.948 261.513 342.602 259.831 343.35C258.149 344.097 256.561 344.938 255.066 345.872C253.011 347.18 250.956 348.301 248.9 349.235C246.845 349.983 244.696 350.356 242.454 350.356C233.485 343.817 228.814 332.512 228.44 316.443C228.254 300.374 231.71 279.914 238.811 255.063C240.118 254.129 240.679 252.728 240.492 250.859V247.776L237.689 247.496C236.755 247.496 235.914 247.59 235.167 247.776C234.42 247.963 233.859 248.804 233.485 250.299C227.506 254.596 220.966 259.081 213.866 263.752C206.953 268.236 199.759 272.44 192.285 276.364C184.811 280.101 177.15 283.278 169.303 285.894C161.642 288.323 154.168 289.537 146.881 289.537C128.196 289.537 114.089 280.008 104.56 260.949L102.037 255.904L99.2344 260.389C98.6738 261.323 97.6462 263.191 96.1514 265.994C94.8434 268.61 93.4421 271.693 91.9473 275.243C90.6393 278.793 89.4248 282.437 88.3037 286.174C87.3695 289.911 87.0892 293.181 87.4629 295.983C85.2207 298.039 82.9785 300.374 80.7363 302.99C78.681 305.606 77.1862 308.596 76.252 311.959C75.8783 312.893 75.7848 313.827 75.9717 314.762C76.1585 315.509 76.4388 316.35 76.8125 317.284C76.6257 318.592 76.252 319.526 75.6914 320.087C75.1309 320.647 74.4769 321.208 73.7295 321.769C72.7952 322.703 71.861 323.73 70.9268 324.852C69.9925 325.786 69.1517 326.907 68.4043 328.215C68.0306 329.336 67.7503 330.55 67.5635 331.858C67.3766 332.979 67.1898 334.007 67.0029 334.941C67.0029 336.997 66.7227 338.398 66.1621 339.146C64.2936 343.069 62.612 346.339 61.1172 348.955C59.8092 351.384 58.5013 353.253 57.1934 354.561C55.8854 355.868 54.484 356.709 52.9893 357.083C51.6813 357.644 50.0931 357.924 48.2246 357.924ZM325.695 218.628C317.848 215.451 311.308 210.967 306.076 205.175C301.031 199.382 296.921 192.562 293.744 184.715C295.613 179.67 298.602 175.466 302.713 172.103C306.824 168.552 311.401 165.563 316.446 163.134C321.678 160.705 327.19 158.743 332.982 157.248C338.775 155.753 344.38 154.445 349.799 153.324C350.92 153.698 351.48 153.698 351.48 153.324C351.48 152.951 351.948 153.137 352.882 153.885C359.608 151.829 367.363 149.868 376.145 147.999C384.926 145.944 394.269 145.196 404.172 145.757C405.48 145.009 407.068 144.636 408.937 144.636C410.805 144.449 412.767 144.355 414.822 144.355C416.878 144.355 418.84 144.355 420.708 144.355C422.576 144.169 424.165 143.795 425.473 143.234C426.594 144.542 428.275 145.383 430.518 145.757C432.76 145.944 435.095 146.878 437.524 148.56C438.272 148.746 438.272 148.466 437.524 147.719C436.777 146.785 436.87 146.131 437.805 145.757C440.234 145.757 442.382 146.317 444.251 147.438C446.119 148.56 447.801 149.868 449.296 151.362C450.978 152.67 452.472 153.885 453.78 155.006C455.275 156.127 456.863 156.688 458.545 156.688C460.227 158.743 462.188 160.705 464.431 162.573C466.86 164.255 469.102 166.03 471.157 167.898C473.399 169.767 475.174 171.822 476.482 174.064C477.977 176.307 478.725 178.829 478.725 181.632C478.538 182.753 478.911 183.407 479.846 183.594C480.78 183.781 481.434 184.341 481.808 185.275C481.994 192.189 480.873 198.168 478.444 203.213C476.202 208.258 473.306 212.929 469.756 217.227C466.206 221.337 462.375 225.261 458.265 228.998C454.341 232.735 450.697 236.752 447.334 241.05C449.576 243.853 452.099 246.468 454.901 248.897C457.891 251.14 460.881 253.382 463.87 255.624C466.86 257.866 469.662 260.295 472.278 262.911C475.081 265.34 477.417 268.143 479.285 271.319C479.846 272.44 481.06 273.188 482.929 273.562C483.489 275.804 484.237 278.139 485.171 280.568C486.292 282.811 487.32 285.053 488.254 287.295C489.188 289.35 489.749 291.219 489.936 292.9C490.122 294.582 489.655 295.983 488.534 297.104C489.842 297.852 490.59 299.066 490.776 300.748C490.963 302.243 490.963 303.457 490.776 304.392C486.666 309.437 483.863 312.987 482.368 315.042C480.873 317.097 479.752 318.592 479.005 319.526C478.257 320.461 477.51 321.301 476.763 322.049C476.015 322.796 474.334 324.291 471.718 326.533C461.815 332.512 451.445 337.931 440.607 342.789C429.957 347.46 418.84 350.637 407.255 352.318C406.321 353.626 404.919 354.654 403.051 355.401C401.369 356.336 399.407 357.083 397.165 357.644C394.923 358.204 392.494 358.671 389.878 359.045C387.449 359.419 385.207 359.792 383.151 360.166C382.217 359.792 381.657 359.138 381.47 358.204C381.47 357.457 381.003 356.896 380.068 356.522C379.882 358.765 378.854 359.886 376.985 359.886C375.304 360.073 373.155 359.699 370.539 358.765C367.923 357.83 365.214 356.522 362.411 354.841C359.608 353.159 357.179 351.571 355.124 350.076C354.19 351.758 352.975 353.533 351.48 355.401C350.173 357.27 348.771 358.578 347.276 359.325C344.66 358.951 342.699 358.671 341.391 358.484C340.27 358.298 339.148 358.765 338.027 359.886C336.533 359.138 335.411 358.298 334.664 357.363C333.917 356.616 333.169 355.775 332.422 354.841C331.674 354.093 330.834 353.439 329.899 352.879C328.965 352.132 327.564 351.478 325.695 350.917C326.069 349.983 325.789 348.581 324.854 346.713C323.92 344.658 322.612 343.443 320.931 343.069C321.865 341.575 321.491 339.706 319.81 337.464C318.128 335.035 316.82 332.326 315.886 329.336C316.073 328.028 316.166 326.72 316.166 325.412C316.353 323.917 316.54 322.609 316.727 321.488C317.1 320.18 317.567 319.059 318.128 318.125C318.688 317.191 319.623 316.537 320.931 316.163C320.744 313.734 319.996 311.398 318.688 309.156C320.37 307.848 321.491 306.26 322.052 304.392C322.612 302.336 323.079 300.281 323.453 298.226C324.014 296.17 324.668 294.208 325.415 292.34C326.162 290.285 327.377 288.603 329.059 287.295C328.685 286.734 328.311 286.267 327.938 285.894C327.564 285.52 327.377 284.866 327.377 283.932C330.18 279.26 332.142 275.337 333.263 272.16C334.384 268.797 335.225 265.62 335.785 262.631C336.533 259.454 337.28 256.091 338.027 252.541C338.775 248.991 340.27 244.507 342.512 239.088C342.325 235.725 342.699 232.735 343.633 230.119C344.567 227.503 345.501 224.981 346.436 222.552C347.557 219.936 348.397 217.227 348.958 214.424C349.519 211.621 349.425 208.351 348.678 204.614C345.501 204.988 343.166 206.109 341.671 207.978C340.363 209.846 339.522 212.368 339.148 215.545C337.467 217.04 335.318 217.787 332.702 217.787C330.086 217.6 327.751 217.881 325.695 218.628ZM449.016 272.721C441.915 268.797 435.376 266.461 429.396 265.714C423.604 264.966 417.999 265.06 412.58 265.994C407.348 266.742 402.303 267.863 397.445 269.357C392.587 270.852 387.729 271.973 382.871 272.721C380.442 279.074 377.92 286.08 375.304 293.741C372.688 301.402 370.165 308.876 367.736 316.163C374.463 315.229 380.629 313.827 386.234 311.959C391.84 310.09 397.258 308.035 402.49 305.793C407.722 303.364 412.86 301.028 417.905 298.786C422.95 296.357 428.182 294.115 433.601 292.06C434.161 289.817 435.376 288.042 437.244 286.734C439.113 285.426 440.981 284.212 442.85 283.091C444.718 281.783 446.306 280.382 447.614 278.887C448.922 277.392 449.389 275.337 449.016 272.721ZM429.396 184.995C417.812 184.621 406.414 185.649 395.203 188.078C383.992 190.507 374.556 194.057 366.896 198.729C370.632 201.905 374.463 204.708 378.387 207.137C382.497 209.566 385.58 212.836 387.636 216.946C396.604 213.396 404.452 208.912 411.179 203.493C417.905 197.888 423.978 191.722 429.396 184.995Z" fill="#FFFF00"/>
</g>
<rect x="0.5" y="0.5" width="522" height="499" rx="1.5" stroke="white" stroke-opacity="0.1"/>
<defs>
<clipPath id="clip0_3_8">
<rect width="523" height="500" rx="2" fill="white"/>
</clipPath>
</defs>
</svg>
