<svg version="1.1" id="Layer_1" xmlns="http://www.w3.org/2000/svg" xmlns:xlink="http://www.w3.org/1999/xlink" x="0px" y="0px"
	 width="100%" viewBox="0 0 128 128" enable-background="new 0 0 128 128" xml:space="preserve">
<path fill="#0101FE" opacity="1.000000" stroke="none" 
	d="
M129.000000,81.000000 
	C129.000000,94.687561 129.000000,108.375122 128.696655,122.257065 
	C126.595520,124.634300 124.797760,126.817146 123.000000,129.000000 
	C84.645775,129.000000 46.291542,129.000000 7.744710,128.699646 
	C5.368069,126.599518 3.184034,124.799759 0.999999,123.000000 
	C1.000000,84.645775 1.000000,46.291542 1.300356,7.744709 
	C3.400475,5.368069 5.200238,3.184035 7.000000,1.000000 
	C45.354229,1.000000 83.708458,1.000000 122.249924,1.294666 
	C124.624779,3.392889 126.812386,5.196446 129.000000,7.000001 
	C129.000000,29.354227 129.000000,51.708454 128.701080,74.309959 
	C126.318123,70.436546 124.234077,66.315865 122.067497,62.031979 
	C130.386185,56.277779 128.232819,42.623135 119.706909,38.356800 
	C110.416260,33.707790 94.648430,35.205956 86.913918,42.180401 
	C85.137939,43.781857 83.986626,46.076042 82.547836,48.051426 
	C82.933418,48.539204 83.319008,49.026978 83.704590,49.514755 
	C86.119431,48.744995 88.576050,48.084866 90.940826,47.183727 
	C96.696045,44.990597 102.406090,42.722713 108.707054,45.005554 
	C112.800789,46.488716 114.667847,49.919998 113.989632,54.485641 
	C113.384201,58.561344 110.708466,58.942684 107.250603,59.139912 
	C105.349564,59.248337 103.541527,60.987301 101.361649,61.952538 
	C100.811699,61.889095 100.591660,61.864223 100.468361,61.414116 
	C100.760544,59.009193 101.168976,57.022022 101.099792,55.051620 
	C101.004158,52.328072 100.548721,49.617153 100.247375,46.900826 
	C97.936508,48.743286 95.532478,50.484638 93.364372,52.482071 
	C92.587074,53.198181 92.242271,54.493610 91.932838,55.590313 
	C89.489281,64.250893 87.102013,72.927353 84.650604,81.767799 
	C83.976273,81.578949 82.437424,81.147987 81.402420,80.858124 
	C80.880966,78.304337 80.459686,76.241173 79.878860,73.396637 
	C75.295296,77.327843 71.611961,80.486938 67.928627,83.646027 
	C67.389320,83.393356 66.850006,83.140686 66.310692,82.888008 
	C66.654083,80.456589 66.915062,78.010071 67.357002,75.596695 
	C68.486816,69.426987 70.245941,63.316513 70.749718,57.100998 
	C71.550514,47.220768 65.373306,41.737503 56.969231,44.352318 
	C54.569069,45.099094 52.443722,46.729118 49.981800,48.068699 
	C48.861683,42.007519 47.567490,36.535519 39.851963,35.891777 
	C33.105415,35.328884 28.705431,38.767826 25.863335,42.484501 
	C23.048775,40.048260 21.032312,36.982433 18.401657,36.306320 
	C13.252464,34.982899 7.880693,36.107010 4.423062,40.584351 
	C3.079166,42.324585 3.405683,45.354797 2.971288,47.797398 
	C4.997664,47.272316 7.342077,47.222427 8.984282,46.123333 
	C12.414555,43.827530 13.802126,45.664864 13.858829,48.509827 
	C13.926894,51.924843 12.977417,55.352718 12.560680,58.786213 
	C11.346500,68.789841 9.944109,78.779205 9.094362,88.814713 
	C8.691482,93.572746 11.057885,95.053886 15.684427,93.950134 
	C20.817532,92.725540 23.059393,89.423904 21.845993,82.382690 
	C19.967793,71.483711 24.506319,62.441975 29.110374,53.345860 
	C30.045193,51.498959 31.685398,49.827732 33.373997,48.581848 
	C36.786697,46.063896 39.627651,47.179688 39.809971,51.380520 
	C39.972012,55.114113 39.249447,58.942509 38.509121,62.647488 
	C36.801441,71.193649 34.676582,79.659805 33.133186,88.232628 
	C32.822811,89.956635 34.113049,93.475983 35.057358,93.621376 
	C37.402409,93.982468 40.730160,93.643616 42.252689,92.148994 
	C43.950985,90.481827 44.830006,87.212906 44.778625,84.667145 
	C44.585285,75.088234 47.952877,66.881767 53.633041,59.508102 
	C54.987316,57.750061 57.204094,56.656433 59.024166,55.257210 
	C59.437649,55.552666 59.851131,55.848125 60.264618,56.143581 
	C60.008625,58.884686 59.989723,61.673462 59.450089,64.357536 
	C58.088943,71.127693 55.919357,77.786285 55.153343,84.610756 
	C54.390987,91.402695 58.301434,94.796150 64.919228,92.938957 
	C70.056770,91.497185 74.686211,88.244827 78.547173,86.298485 
	C84.017792,88.717720 89.285713,91.738930 94.951241,93.420570 
	C110.732147,98.104691 122.984673,93.402153 129.000000,81.000000 
z"/>
<path fill="#F9F906" opacity="1.000000" stroke="none" 
	d="
M129.000000,80.571533 
	C122.984673,93.402153 110.732147,98.104691 94.951241,93.420570 
	C89.285713,91.738930 84.017792,88.717720 78.547173,86.298485 
	C74.686211,88.244827 70.056770,91.497185 64.919228,92.938957 
	C58.301434,94.796150 54.390987,91.402695 55.153343,84.610756 
	C55.919357,77.786285 58.088943,71.127693 59.450089,64.357536 
	C59.989723,61.673462 60.008625,58.884686 60.264618,56.143581 
	C59.851131,55.848125 59.437649,55.552666 59.024166,55.257210 
	C57.204094,56.656433 54.987316,57.750061 53.633041,59.508102 
	C47.952877,66.881767 44.585285,75.088234 44.778625,84.667145 
	C44.830006,87.212906 43.950985,90.481827 42.252689,92.148994 
	C40.730160,93.643616 37.402409,93.982468 35.057358,93.621376 
	C34.113049,93.475983 32.822811,89.956635 33.133186,88.232628 
	C34.676582,79.659805 36.801441,71.193649 38.509121,62.647488 
	C39.249447,58.942509 39.972012,55.114113 39.809971,51.380520 
	C39.627651,47.179688 36.786697,46.063896 33.373997,48.581848 
	C31.685398,49.827732 30.045193,51.498959 29.110374,53.345860 
	C24.506319,62.441975 19.967793,71.483711 21.845993,82.382690 
	C23.059393,89.423904 20.817532,92.725540 15.684427,93.950134 
	C11.057885,95.053886 8.691482,93.572746 9.094362,88.814713 
	C9.944109,78.779205 11.346500,68.789841 12.560680,58.786213 
	C12.977417,55.352718 13.926894,51.924843 13.858829,48.509827 
	C13.802126,45.664864 12.414555,43.827530 8.984282,46.123333 
	C7.342077,47.222427 4.997664,47.272316 2.971288,47.797398 
	C3.405683,45.354797 3.079166,42.324585 4.423062,40.584351 
	C7.880693,36.107010 13.252464,34.982899 18.401657,36.306320 
	C21.032312,36.982433 23.048775,40.048260 25.863335,42.484501 
	C28.705431,38.767826 33.105415,35.328884 39.851963,35.891777 
	C47.567490,36.535519 48.861683,42.007519 49.981800,48.068699 
	C52.443722,46.729118 54.569069,45.099094 56.969231,44.352318 
	C65.373306,41.737503 71.550514,47.220768 70.749718,57.100998 
	C70.245941,63.316513 68.486816,69.426987 67.357002,75.596695 
	C66.915062,78.010071 66.654083,80.456589 66.310692,82.888008 
	C66.850006,83.140686 67.389320,83.393356 67.928627,83.646027 
	C71.611961,80.486938 75.295296,77.327843 79.878860,73.396637 
	C80.459686,76.241173 80.880966,78.304337 81.402420,80.858124 
	C82.437424,81.147987 83.976273,81.578949 84.650604,81.767799 
	C87.102013,72.927353 89.489281,64.250893 91.932838,55.590313 
	C92.242271,54.493610 92.587074,53.198181 93.364372,52.482071 
	C95.532478,50.484638 97.936508,48.743286 100.247375,46.900826 
	C100.548721,49.617153 101.004158,52.328072 101.099792,55.051620 
	C101.168976,57.022022 100.760544,59.009193 100.297012,61.750389 
	C99.220497,68.027618 98.437592,73.547234 97.597275,79.058098 
	C96.516335,86.147079 96.585625,86.256950 103.816689,86.226509 
	C104.972656,86.221642 106.154167,86.210251 107.279259,85.982002 
	C112.428978,84.937225 115.333633,80.754402 115.004646,74.981979 
	C114.661148,68.954918 113.234314,67.486580 107.169830,66.947166 
	C104.089638,66.673187 101.657410,65.699646 101.691559,61.991104 
	C103.541527,60.987301 105.349564,59.248337 107.250603,59.139912 
	C110.708466,58.942684 113.384201,58.561344 113.989632,54.485641 
	C114.667847,49.919998 112.800789,46.488716 108.707054,45.005554 
	C102.406090,42.722713 96.696045,44.990597 90.940826,47.183727 
	C88.576050,48.084866 86.119431,48.744995 83.704590,49.514755 
	C83.319008,49.026978 82.933418,48.539204 82.547836,48.051426 
	C83.986626,46.076042 85.137939,43.781857 86.913918,42.180401 
	C94.648430,35.205956 110.416260,33.707790 119.706909,38.356800 
	C128.232819,42.623135 130.386185,56.277779 122.067497,62.031979 
	C124.234077,66.315865 126.318123,70.436546 128.701080,74.778618 
	C129.000000,76.714355 129.000000,78.428719 129.000000,80.571533 
z"/>
<path fill="#000000" opacity="1.000000" stroke="none" 
	d="
M129.000000,6.500530 
	C126.812386,5.196446 124.624779,3.392889 122.718582,1.294666 
	C124.913231,1.000000 126.826454,1.000000 129.000000,1.000000 
	C129.000000,2.663430 129.000000,4.332244 129.000000,6.500530 
z"/>
<path fill="#000000" opacity="1.000000" stroke="none" 
	d="
M123.499466,129.000000 
	C124.797760,126.817146 126.595520,124.634300 128.696655,122.725723 
	C129.000000,124.913231 129.000000,126.826454 129.000000,129.000000 
	C127.336571,129.000000 125.667763,129.000000 123.499466,129.000000 
z"/>
<path fill="#000000" opacity="1.000000" stroke="none" 
	d="
M6.500528,1.000000 
	C5.200238,3.184035 3.400475,5.368069 1.300356,7.276052 
	C1.000000,5.086773 1.000000,3.173546 1.000000,1.000000 
	C2.663430,1.000000 4.332244,1.000000 6.500528,1.000000 
z"/>
<path fill="#000000" opacity="1.000000" stroke="none" 
	d="
M0.999999,123.499474 
	C3.184034,124.799759 5.368069,126.599518 7.276052,128.699646 
	C5.086773,129.000000 3.173547,129.000000 1.000000,129.000000 
	C1.000000,127.336571 1.000000,125.667763 0.999999,123.499474 
z"/>
<path fill="#0303FC" opacity="1.000000" stroke="none" 
	d="
M101.361649,61.952538 
	C101.657410,65.699646 104.089638,66.673187 107.169830,66.947166 
	C113.234314,67.486580 114.661148,68.954918 115.004646,74.981979 
	C115.333633,80.754402 112.428978,84.937225 107.279259,85.982002 
	C106.154167,86.210251 104.972656,86.221642 103.816689,86.226509 
	C96.585625,86.256950 96.516335,86.147079 97.597275,79.058098 
	C98.437592,73.547234 99.220497,68.027618 100.200272,62.175621 
	C100.591660,61.864223 100.811699,61.889095 101.361649,61.952538 
z"/>
</svg>