<svg width="499" height="173" viewBox="0 0 499 173" fill="none" xmlns="http://www.w3.org/2000/svg">
<g clip-path="url(#clip0_2_4)">
<rect x="33" y="36" width="126" height="101" rx="17" fill="#4866F5"/>
<path d="M194.834 106.752C194.476 106.752 193.921 106.698 193.169 106.591C192.596 105.982 192.077 105.159 191.611 104.12C191.182 103.046 190.841 101.918 190.591 100.736C190.376 99.5189 190.269 98.3193 190.269 97.1377C190.304 95.9202 190.519 94.846 190.913 93.915C190.913 93.8792 191.074 93.4495 191.396 92.626C191.755 91.8024 192.202 90.764 192.739 89.5107C193.276 88.2217 193.885 86.8073 194.565 85.2676C195.246 83.6921 195.926 82.1523 196.606 80.6484C197.287 79.1445 197.931 77.7839 198.54 76.5664C199.185 75.3132 199.74 74.3464 200.205 73.666C200.527 73.1647 200.814 72.6813 201.064 72.2158C201.351 71.7503 201.619 71.3206 201.87 70.9268C202.264 70.2822 202.622 69.6914 202.944 69.1543C203.302 68.5814 203.678 68.0801 204.072 67.6504C204.502 67.1849 204.967 66.791 205.469 66.4688C205.97 66.1107 206.579 65.8063 207.295 65.5557C207.725 65.7347 208.101 65.9316 208.423 66.1465C208.745 66.3255 209.032 66.5583 209.282 66.8447L209.443 67.5967C209.515 67.8473 209.622 68.0264 209.766 68.1338C209.945 68.2054 210.088 68.2412 210.195 68.2412C210.661 68.3486 211.055 68.474 211.377 68.6172C211.735 68.7246 212.111 68.7962 212.505 68.832C212.648 69.0469 212.773 69.2617 212.881 69.4766C213.024 69.6914 213.167 69.8883 213.311 70.0674C214.027 71.1058 214.618 72.1084 215.083 73.0752C215.549 74.042 215.549 75.0983 215.083 76.2441L215.137 76.835C215.316 77.0856 215.405 77.3184 215.405 77.5332C215.405 77.748 215.369 78.0524 215.298 78.4463C215.262 78.7327 215.226 79.055 215.19 79.4131C215.19 79.7354 215.244 80.0934 215.352 80.4873L215.728 80.917C216.3 81.2035 216.855 81.3467 217.393 81.3467C218.109 81.3467 218.753 81.1855 219.326 80.8633C219.899 80.541 220.436 80.2188 220.938 79.8965C221.331 79.61 221.689 79.3773 222.012 79.1982C222.37 79.0192 222.71 78.8939 223.032 78.8223C223.784 78.1061 224.465 77.4795 225.073 76.9424C225.718 76.3695 226.38 75.7965 227.061 75.2236C228.35 74.1852 229.603 73.0752 230.82 71.8936C232.038 70.6761 233.005 69.1722 233.721 67.3818C234.115 67.1312 234.562 67.0059 235.063 67.0059C235.565 67.0059 236.066 67.1133 236.567 67.3281C237.069 67.5072 237.57 67.722 238.071 67.9727C238.179 68.0443 238.268 68.098 238.34 68.1338C238.447 68.1696 238.555 68.2233 238.662 68.2949C238.662 68.6888 238.823 69.0469 239.146 69.3691C239.325 69.5124 239.45 69.6019 239.521 69.6377C239.593 69.6735 239.665 69.7093 239.736 69.7451C240.023 69.9242 240.256 70.0853 240.435 70.2285C240.649 70.3717 240.811 70.5687 240.918 70.8193C241.24 71.7861 241.777 72.5381 242.529 73.0752C242.458 73.4691 242.476 73.863 242.583 74.2568C242.69 74.6149 242.816 74.973 242.959 75.3311C243.031 75.4743 243.084 75.6175 243.12 75.7607C243.156 75.8682 243.21 76.0114 243.281 76.1904L242.1 76.083L242.261 77.2646C242.368 77.8734 242.314 78.5537 242.1 79.3057C241.921 80.0576 241.706 80.6484 241.455 81.0781C241.527 82.1523 241.562 83.0117 241.562 83.6562C241.562 84.265 241.527 84.8379 241.455 85.375C241.383 85.9121 241.258 86.4313 241.079 86.9326C240.936 87.3981 240.739 87.8994 240.488 88.4365C240.632 91.1579 240.309 93.6465 239.521 95.9023C238.77 98.1582 237.946 100.271 237.051 102.24C236.943 102.491 236.836 102.724 236.729 102.938C236.621 103.153 236.532 103.368 236.46 103.583C236.066 103.69 235.708 103.816 235.386 103.959C235.063 104.102 234.759 104.263 234.473 104.442C234.079 104.693 233.685 104.908 233.291 105.087C232.897 105.23 232.485 105.302 232.056 105.302C230.337 104.049 229.442 101.882 229.37 98.8027C229.334 95.7233 229.997 91.8024 231.357 87.04C231.608 86.861 231.715 86.5924 231.68 86.2344V85.6436L231.143 85.5898C230.964 85.5898 230.802 85.6077 230.659 85.6436C230.516 85.6794 230.409 85.8405 230.337 86.127C229.191 86.9505 227.938 87.8099 226.577 88.7051C225.252 89.5645 223.874 90.3701 222.441 91.1221C221.009 91.8382 219.541 92.4469 218.037 92.9482C216.569 93.4137 215.137 93.6465 213.74 93.6465C210.16 93.6465 207.456 91.8203 205.63 88.168L205.146 87.2012L204.609 88.0605C204.502 88.2396 204.305 88.5977 204.019 89.1348C203.768 89.6361 203.499 90.2269 203.213 90.9072C202.962 91.5876 202.729 92.2858 202.515 93.002C202.336 93.7181 202.282 94.3447 202.354 94.8818C201.924 95.2757 201.494 95.7233 201.064 96.2246C200.671 96.7259 200.384 97.2988 200.205 97.9434C200.133 98.1224 200.116 98.3014 200.151 98.4805C200.187 98.6237 200.241 98.7848 200.312 98.9639C200.277 99.2145 200.205 99.3936 200.098 99.501C199.99 99.6084 199.865 99.7158 199.722 99.8232C199.543 100.002 199.364 100.199 199.185 100.414C199.006 100.593 198.844 100.808 198.701 101.059C198.63 101.273 198.576 101.506 198.54 101.757C198.504 101.972 198.468 102.169 198.433 102.348C198.433 102.742 198.379 103.01 198.271 103.153C197.913 103.905 197.591 104.532 197.305 105.033C197.054 105.499 196.803 105.857 196.553 106.107C196.302 106.358 196.034 106.519 195.747 106.591C195.496 106.698 195.192 106.752 194.834 106.752ZM274.863 89.8867C274.827 90.3164 274.863 90.7282 274.971 91.1221C275.078 91.516 275.203 91.9098 275.347 92.3037C275.526 92.6618 275.687 93.0378 275.83 93.4316C275.973 93.8255 276.081 94.2194 276.152 94.6133C276.224 95.1146 276.224 95.6696 276.152 96.2783C276.081 96.8512 275.955 97.4242 275.776 97.9971C275.597 98.5342 275.365 99.0355 275.078 99.501C274.792 99.9307 274.451 100.253 274.058 100.468C273.556 101.112 272.948 101.614 272.231 101.972C271.515 102.33 270.853 102.759 270.244 103.261C269.85 103.511 269.403 103.69 268.901 103.798C268.436 103.905 267.952 104.013 267.451 104.12C267.057 104.335 266.592 104.568 266.055 104.818C265.518 105.033 264.963 105.248 264.39 105.463C263.817 105.642 263.244 105.785 262.671 105.893C262.098 105.964 261.597 105.982 261.167 105.946C260.093 106.34 259.036 106.591 257.998 106.698C256.995 106.841 255.814 106.77 254.453 106.483C253.164 106.662 251.965 106.609 250.854 106.322C249.78 106.036 248.813 105.588 247.954 104.979C247.131 104.335 246.396 103.583 245.752 102.724C245.143 101.828 244.642 100.897 244.248 99.9307C243.962 97.8896 244.033 96.0456 244.463 94.3984C244.893 92.7155 245.501 91.1758 246.289 89.7793C247.113 88.347 248.044 87.04 249.082 85.8584C250.12 84.641 251.123 83.4593 252.09 82.3135C252.305 82.3851 252.466 82.3851 252.573 82.3135C252.716 82.2061 252.842 82.0807 252.949 81.9375C253.057 81.7585 253.164 81.5973 253.271 81.4541C253.415 81.3109 253.576 81.2214 253.755 81.1855C254.006 80.6484 254.364 80.2546 254.829 80.0039C255.33 79.7174 255.724 79.3236 256.011 78.8223C256.333 78.7507 256.602 78.6432 256.816 78.5C257.031 78.3568 257.228 78.1956 257.407 78.0166C257.622 77.8376 257.837 77.6764 258.052 77.5332C258.267 77.3542 258.517 77.2288 258.804 77.1572V76.5664C259.448 76.2799 259.914 75.9577 260.2 75.5996C260.522 75.2057 260.898 74.7402 261.328 74.2031C261.65 74.1673 261.901 74.1494 262.08 74.1494C262.295 74.1494 262.599 74.1136 262.993 74.042C263.28 73.5407 263.53 73.1647 263.745 72.9141C263.996 72.6634 264.354 72.3949 264.819 72.1084C265.249 72.3232 265.715 72.4665 266.216 72.5381C266.753 72.6097 267.218 72.8424 267.612 73.2363C267.648 73.5944 267.756 73.8809 267.935 74.0957C268.114 74.2747 268.311 74.4538 268.525 74.6328C268.74 74.776 268.937 74.9372 269.116 75.1162C269.331 75.2952 269.474 75.5459 269.546 75.8682C269.689 75.904 269.779 75.8861 269.814 75.8145C269.886 75.7428 269.993 75.7249 270.137 75.7607C270.244 76.262 270.369 76.6022 270.513 76.7812C270.656 76.9245 270.799 77.2288 270.942 77.6943C270.763 78.0524 270.62 78.4284 270.513 78.8223C270.441 79.1803 270.226 79.4489 269.868 79.6279C269.832 79.8786 269.904 80.0218 270.083 80.0576C270.262 80.0576 270.369 80.1471 270.405 80.3262C270.441 80.6484 270.387 80.8812 270.244 81.0244C271.104 82.4209 271.873 83.9069 272.554 85.4824C273.234 87.0221 274.004 88.4902 274.863 89.8867ZM268.149 94.9893C268.293 94.5954 268.472 94.2731 268.687 94.0225C268.937 93.7718 269.08 93.3958 269.116 92.8945C268.937 92.6081 268.83 92.3932 268.794 92.25C268.758 92.071 268.74 91.8024 268.74 91.4443C267.952 90.3343 267.272 89.1527 266.699 87.8994C266.126 86.6104 265.482 85.4108 264.766 84.3008C264.694 84.444 264.569 84.5872 264.39 84.7305C264.211 84.8737 264.014 84.8379 263.799 84.623C263.727 84.9095 263.602 85.1243 263.423 85.2676C263.244 85.375 263.047 85.4287 262.832 85.4287C262.617 85.3929 262.384 85.3392 262.134 85.2676C261.919 85.1602 261.722 85.0348 261.543 84.8916C260.505 85.7152 259.466 86.5208 258.428 87.3086C257.389 88.0964 256.458 89.0094 255.635 90.0479C255.492 90.1195 255.402 90.1553 255.366 90.1553C255.33 90.1195 255.223 90.1374 255.044 90.209C254.757 90.8893 254.399 91.516 253.97 92.0889C253.576 92.626 253.182 93.181 252.788 93.7539C252.394 94.3268 252.054 94.9355 251.768 95.5801C251.481 96.2246 251.32 96.9766 251.284 97.8359C251.893 98.3372 252.609 98.6416 253.433 98.749C254.256 98.8564 255.098 98.8743 255.957 98.8027C256.852 98.7311 257.712 98.6237 258.535 98.4805C259.395 98.3014 260.182 98.2119 260.898 98.2119C262.402 97.8538 263.691 97.3883 264.766 96.8154C265.84 96.2067 266.968 95.598 268.149 94.9893ZM294.36 96.5469C294.325 97.0482 294.199 97.5316 293.984 97.9971C293.805 98.4268 293.573 98.8564 293.286 99.2861C293 99.68 292.677 100.074 292.319 100.468C291.997 100.826 291.675 101.148 291.353 101.435C291.46 101.9 291.46 102.258 291.353 102.509C291.281 102.724 291.263 103.064 291.299 103.529C290.762 104.962 289.938 105.91 288.828 106.376C287.754 106.877 286.733 106.788 285.767 106.107C285.373 105.821 285.033 105.463 284.746 105.033C284.495 104.568 284.137 104.281 283.672 104.174C283.779 103.565 283.726 102.956 283.511 102.348C283.296 101.739 283.063 101.417 282.812 101.381C282.705 100.629 282.544 99.8232 282.329 98.9639C282.114 98.1045 281.917 97.2451 281.738 96.3857C281.559 95.4906 281.398 94.6312 281.255 93.8076C281.147 92.9482 281.112 92.1605 281.147 91.4443C281.183 91.0863 281.112 90.764 280.933 90.4775C280.789 90.1911 280.682 89.8509 280.61 89.457C280.467 88.6335 280.413 87.7741 280.449 86.8789C280.521 85.9479 280.557 85.0706 280.557 84.2471C280.557 83.4593 280.503 82.6178 280.396 81.7227C280.324 80.7917 280.252 79.9144 280.181 79.0908C280.109 78.2314 280.073 77.4616 280.073 76.7812C280.073 76.0651 280.163 75.5101 280.342 75.1162C280.557 74.6865 280.843 74.3464 281.201 74.0957C281.595 73.8092 281.953 73.5049 282.275 73.1826C283.063 73.2542 283.69 73.5765 284.155 74.1494C284.621 74.7223 284.8 75.2594 284.692 75.7607C285.444 76.2262 286.035 76.835 286.465 77.5869C286.93 78.3031 287.288 79.1266 287.539 80.0576C287.826 80.9528 288.022 81.9196 288.13 82.958C288.237 83.9606 288.327 84.9632 288.398 85.9658C288.47 86.9326 288.542 87.8636 288.613 88.7588C288.685 89.654 288.828 90.4238 289.043 91.0684C290.368 89.1706 291.478 87.4876 292.373 86.0195C293.268 84.5156 294.181 83.0833 295.112 81.7227C296.043 80.362 297.082 78.9834 298.228 77.5869C299.373 76.1904 300.859 74.6149 302.686 72.8604C303.044 72.8962 303.33 72.9678 303.545 73.0752C303.796 73.1826 304.01 73.2721 304.189 73.3438C304.368 73.4154 304.583 73.487 304.834 73.5586C305.085 73.5944 305.425 73.5765 305.854 73.5049C305.998 73.863 306.105 74.1315 306.177 74.3105C306.248 74.4538 306.302 74.6149 306.338 74.7939C306.41 74.9372 306.481 75.1341 306.553 75.3848C306.66 75.6354 306.821 75.9935 307.036 76.459C307.144 76.5664 307.179 76.7096 307.144 76.8887C307.108 77.0677 307.072 77.2467 307.036 77.4258C307.036 77.569 307.036 77.6764 307.036 77.748C307.036 77.8197 307.126 77.8197 307.305 77.748C307.197 78.2493 307 78.7148 306.714 79.1445C306.463 79.5384 306.356 80.0218 306.392 80.5947C305.568 81.6689 304.655 82.779 303.652 83.9248C302.686 85.0706 301.701 86.2523 300.698 87.4697C299.731 88.6872 298.8 89.9762 297.905 91.3369C297.01 92.6618 296.24 94.0583 295.596 95.5264C295.417 95.5264 295.273 95.5801 295.166 95.6875C295.094 95.7949 295.023 95.9202 294.951 96.0635C294.88 96.1709 294.79 96.2783 294.683 96.3857C294.611 96.4932 294.504 96.5469 294.36 96.5469ZM314.556 102.24C314.735 103.314 314.663 104.156 314.341 104.765C314.054 105.373 313.625 105.821 313.052 106.107C312.515 106.43 311.888 106.609 311.172 106.645C310.456 106.68 309.775 106.645 309.131 106.537C308.773 106.036 308.451 105.409 308.164 104.657C307.878 103.905 307.609 103.135 307.358 102.348C307.108 101.524 306.875 100.718 306.66 99.9307C306.481 99.1429 306.32 98.4447 306.177 97.8359C306.356 97.4062 306.463 96.9229 306.499 96.3857C306.571 95.8128 306.606 95.2399 306.606 94.667C306.642 94.0941 306.66 93.5212 306.66 92.9482C306.696 92.3395 306.75 91.7666 306.821 91.2295C307.072 89.7256 307.43 88.2933 307.896 86.9326C308.397 85.5719 308.791 84.1576 309.077 82.6895C309.149 82.3672 309.113 82.0628 308.97 81.7764C308.862 81.4899 308.844 81.2214 308.916 80.9707C308.952 80.8275 309.059 80.738 309.238 80.7021C309.417 80.6305 309.525 80.5052 309.561 80.3262C309.668 79.9323 309.686 79.61 309.614 79.3594C309.578 79.1087 309.65 78.8044 309.829 78.4463C310.008 78.1598 310.223 77.748 310.474 77.2109C310.76 76.638 310.868 76.0472 310.796 75.4385C311.118 75.2236 311.423 74.973 311.709 74.6865C311.995 74.4001 312.282 74.1494 312.568 73.9346C312.891 73.6839 313.231 73.4691 313.589 73.29C313.983 73.111 314.448 73.0215 314.985 73.0215C315.272 73.3796 315.451 73.7734 315.522 74.2031C315.63 74.6328 315.719 75.0625 315.791 75.4922C315.898 75.9219 316.042 76.3337 316.221 76.7275C316.4 77.0856 316.704 77.3721 317.134 77.5869C317.134 77.8734 317.134 78.2314 317.134 78.6611C317.134 79.0908 317.152 79.5205 317.188 79.9502C317.223 80.3441 317.295 80.7201 317.402 81.0781C317.546 81.4004 317.76 81.6152 318.047 81.7227C317.402 83.4414 316.794 85.1423 316.221 86.8252C315.684 88.5081 315.236 90.209 314.878 91.9277C314.52 93.6107 314.287 95.3115 314.18 97.0303C314.108 98.749 314.233 100.486 314.556 102.24ZM350.757 75.7607C350.793 76.0114 350.793 76.2083 350.757 76.3516C350.757 76.459 350.739 76.5664 350.703 76.6738C350.703 76.7812 350.703 76.9066 350.703 77.0498C350.703 77.1572 350.739 77.3363 350.811 77.5869C350.059 78.8044 349.181 79.6458 348.179 80.1113C347.212 80.541 346.156 80.8633 345.01 81.0781C343.864 81.2572 342.682 81.4541 341.465 81.6689C340.283 81.8838 339.102 82.3493 337.92 83.0654C337.454 82.8864 337.025 82.8864 336.631 83.0654C336.273 83.2445 335.736 83.2982 335.02 83.2266C334.805 83.4414 334.536 83.6025 334.214 83.71C333.892 83.7816 333.569 83.8711 333.247 83.9785C333.39 84.3008 333.444 84.641 333.408 84.999C333.408 85.3213 333.462 85.5898 333.569 85.8047C334.823 85.9121 336.201 85.8942 337.705 85.751C339.245 85.6077 340.749 85.5182 342.217 85.4824C342.253 85.6615 342.235 85.7868 342.163 85.8584C342.091 85.8942 342.074 85.9837 342.109 86.127C342.36 86.306 342.611 86.5387 342.861 86.8252C343.112 87.0758 343.363 87.3265 343.613 87.5771C343.864 87.8278 344.115 88.0426 344.365 88.2217C344.652 88.3649 344.974 88.4186 345.332 88.3828C345.475 88.6693 345.565 88.9915 345.601 89.3496C345.672 89.6719 345.636 90.012 345.493 90.3701C344.92 90.764 344.347 91.1758 343.774 91.6055C343.201 91.9993 342.593 92.3574 341.948 92.6797C341.34 93.002 340.677 93.2705 339.961 93.4854C339.281 93.6644 338.511 93.736 337.651 93.7002C337.472 93.7002 337.329 93.7002 337.222 93.7002C337.15 93.7002 337.043 93.6465 336.899 93.5391C336.613 93.7181 336.201 93.7718 335.664 93.7002C335.163 93.6286 334.769 93.6823 334.482 93.8613C334.089 93.6823 333.605 93.6107 333.032 93.6465C332.495 93.6465 332.012 93.5749 331.582 93.4316C331.009 94.1836 330.49 94.9893 330.024 95.8486C329.559 96.708 329.147 97.6211 328.789 98.5879C330.007 98.7669 331.009 98.8385 331.797 98.8027C332.62 98.7669 333.39 98.7132 334.106 98.6416C334.823 98.5342 335.557 98.4447 336.309 98.373C337.061 98.2656 338.009 98.2298 339.155 98.2656C339.871 97.8717 340.713 97.6211 341.68 97.5137C342.682 97.3704 343.595 97.1556 344.419 96.8691C344.705 96.9766 344.956 97.1735 345.171 97.46C345.386 97.7106 345.583 97.9613 345.762 98.2119C345.977 98.4268 346.191 98.6237 346.406 98.8027C346.621 98.9818 346.89 99.0534 347.212 99.0176C347.355 99.1608 347.445 99.3398 347.48 99.5547C347.552 99.7337 347.606 99.9128 347.642 100.092C347.677 100.271 347.731 100.432 347.803 100.575C347.91 100.683 348.071 100.718 348.286 100.683C347.749 101.864 347.122 102.777 346.406 103.422C345.726 104.031 344.938 104.496 344.043 104.818C343.148 105.141 342.145 105.391 341.035 105.57C339.961 105.749 338.761 105.964 337.437 106.215C337.114 106.286 336.846 106.269 336.631 106.161C336.416 106.09 336.165 106.054 335.879 106.054C335.055 106.233 334.071 106.394 332.925 106.537C331.779 106.68 330.615 106.734 329.434 106.698C328.252 106.662 327.124 106.501 326.05 106.215C324.976 105.964 324.098 105.499 323.418 104.818C323.132 104.568 322.935 104.281 322.827 103.959C322.756 103.601 322.523 103.332 322.129 103.153C322.093 102.688 322.021 102.169 321.914 101.596C321.807 101.023 321.699 100.432 321.592 99.8232C321.484 99.1787 321.395 98.5521 321.323 97.9434C321.287 97.3346 321.323 96.7796 321.431 96.2783C321.538 95.7412 321.753 95.2578 322.075 94.8281C322.433 94.3984 322.559 93.9329 322.451 93.4316C322.63 93.3958 322.738 93.3063 322.773 93.1631C322.809 92.984 322.952 92.9124 323.203 92.9482C323.418 92.3037 323.651 91.695 323.901 91.1221C324.152 90.5492 324.403 89.9941 324.653 89.457C324.94 88.9199 325.208 88.3828 325.459 87.8457C325.745 87.2728 326.014 86.6462 326.265 85.9658C325.763 85.5003 325.387 84.999 325.137 84.4619C324.922 83.889 324.761 83.334 324.653 82.7969C324.546 82.224 324.456 81.651 324.385 81.0781C324.313 80.4694 324.188 79.8607 324.009 79.252C324.367 78.7148 324.797 78.2852 325.298 77.9629C325.835 77.6048 326.408 77.3184 327.017 77.1035C327.625 76.8887 328.288 76.7096 329.004 76.5664C329.72 76.4232 330.472 76.262 331.26 76.083C332.692 75.6175 333.963 75.2594 335.073 75.0088C336.219 74.7581 337.329 74.5612 338.403 74.418C339.513 74.2389 340.659 74.0778 341.841 73.9346C343.022 73.7913 344.365 73.5765 345.869 73.29C346.191 73.6123 346.496 73.7734 346.782 73.7734C346.925 73.4512 347.087 73.3617 347.266 73.5049C347.48 73.6123 347.57 73.5049 347.534 73.1826C347.892 73.7913 348.34 74.3105 348.877 74.7402C349.45 75.1341 350.076 75.4743 350.757 75.7607Z" fill="black"/>
<path d="M353.926 80.0576C352.422 79.4489 351.169 78.5895 350.166 77.4795C349.199 76.3695 348.411 75.0625 347.803 73.5586C348.161 72.5918 348.734 71.7861 349.521 71.1416C350.309 70.4613 351.187 69.8883 352.153 69.4229C353.156 68.9574 354.212 68.5814 355.322 68.2949C356.432 68.0085 357.507 67.7578 358.545 67.543C358.76 67.6146 358.867 67.6146 358.867 67.543C358.867 67.4714 358.957 67.5072 359.136 67.6504C360.425 67.2565 361.911 66.8805 363.594 66.5225C365.277 66.1286 367.067 65.9854 368.965 66.0928C369.215 65.9495 369.52 65.8779 369.878 65.8779C370.236 65.8421 370.612 65.8242 371.006 65.8242C371.4 65.8242 371.776 65.8242 372.134 65.8242C372.492 65.7884 372.796 65.7168 373.047 65.6094C373.262 65.86 373.584 66.0212 374.014 66.0928C374.443 66.1286 374.891 66.3076 375.356 66.6299C375.5 66.6657 375.5 66.612 375.356 66.4688C375.213 66.2897 375.231 66.1644 375.41 66.0928C375.876 66.0928 376.287 66.2002 376.646 66.415C377.004 66.6299 377.326 66.8805 377.612 67.167C377.935 67.4176 378.221 67.6504 378.472 67.8652C378.758 68.0801 379.062 68.1875 379.385 68.1875C379.707 68.5814 380.083 68.9574 380.513 69.3154C380.978 69.6377 381.408 69.9779 381.802 70.3359C382.231 70.694 382.572 71.0879 382.822 71.5176C383.109 71.9473 383.252 72.4307 383.252 72.9678C383.216 73.1826 383.288 73.3079 383.467 73.3438C383.646 73.3796 383.771 73.487 383.843 73.666C383.879 74.9909 383.664 76.1367 383.198 77.1035C382.769 78.0703 382.214 78.9655 381.533 79.7891C380.853 80.5768 380.119 81.3288 379.331 82.0449C378.579 82.7611 377.881 83.5309 377.236 84.3545C377.666 84.8916 378.149 85.3929 378.687 85.8584C379.259 86.2881 379.832 86.7178 380.405 87.1475C380.978 87.5771 381.515 88.0426 382.017 88.5439C382.554 89.0094 383.001 89.5465 383.359 90.1553C383.467 90.3701 383.7 90.5133 384.058 90.585C384.165 91.0146 384.308 91.4622 384.487 91.9277C384.702 92.3574 384.899 92.7871 385.078 93.2168C385.257 93.6107 385.365 93.9688 385.4 94.291C385.436 94.6133 385.347 94.8818 385.132 95.0967C385.382 95.2399 385.526 95.4727 385.562 95.7949C385.597 96.0814 385.597 96.3141 385.562 96.4932C384.774 97.46 384.237 98.1403 383.95 98.5342C383.664 98.9281 383.449 99.2145 383.306 99.3936C383.162 99.5726 383.019 99.7337 382.876 99.877C382.733 100.02 382.41 100.307 381.909 100.736C380.011 101.882 378.024 102.921 375.947 103.852C373.906 104.747 371.776 105.355 369.556 105.678C369.377 105.928 369.108 106.125 368.75 106.269C368.428 106.448 368.052 106.591 367.622 106.698C367.192 106.806 366.727 106.895 366.226 106.967C365.76 107.038 365.33 107.11 364.937 107.182C364.757 107.11 364.65 106.985 364.614 106.806C364.614 106.662 364.525 106.555 364.346 106.483C364.31 106.913 364.113 107.128 363.755 107.128C363.433 107.164 363.021 107.092 362.52 106.913C362.018 106.734 361.499 106.483 360.962 106.161C360.425 105.839 359.959 105.535 359.565 105.248C359.386 105.57 359.154 105.91 358.867 106.269C358.617 106.627 358.348 106.877 358.062 107.021C357.56 106.949 357.184 106.895 356.934 106.859C356.719 106.824 356.504 106.913 356.289 107.128C356.003 106.985 355.788 106.824 355.645 106.645C355.501 106.501 355.358 106.34 355.215 106.161C355.072 106.018 354.91 105.893 354.731 105.785C354.552 105.642 354.284 105.517 353.926 105.409C353.997 105.23 353.944 104.962 353.765 104.604C353.586 104.21 353.335 103.977 353.013 103.905C353.192 103.619 353.12 103.261 352.798 102.831C352.476 102.366 352.225 101.846 352.046 101.273C352.082 101.023 352.1 100.772 352.1 100.521C352.135 100.235 352.171 99.9844 352.207 99.7695C352.279 99.5189 352.368 99.304 352.476 99.125C352.583 98.946 352.762 98.8206 353.013 98.749C352.977 98.2835 352.834 97.8359 352.583 97.4062C352.905 97.1556 353.12 96.8512 353.228 96.4932C353.335 96.0993 353.424 95.7054 353.496 95.3115C353.604 94.9176 353.729 94.5417 353.872 94.1836C354.015 93.7897 354.248 93.4674 354.57 93.2168C354.499 93.1094 354.427 93.0199 354.355 92.9482C354.284 92.8766 354.248 92.7513 354.248 92.5723C354.785 91.6771 355.161 90.9251 355.376 90.3164C355.591 89.6719 355.752 89.0632 355.859 88.4902C356.003 87.8815 356.146 87.237 356.289 86.5566C356.432 85.8763 356.719 85.0169 357.148 83.9785C357.113 83.334 357.184 82.7611 357.363 82.2598C357.542 81.7585 357.721 81.2751 357.9 80.8096C358.115 80.3083 358.276 79.7891 358.384 79.252C358.491 78.7148 358.473 78.0882 358.33 77.3721C357.721 77.4437 357.274 77.6585 356.987 78.0166C356.737 78.3747 356.576 78.8581 356.504 79.4668C356.182 79.7533 355.77 79.8965 355.269 79.8965C354.767 79.8607 354.32 79.9144 353.926 80.0576ZM377.559 90.4238C376.198 89.6719 374.945 89.2243 373.799 89.0811C372.689 88.9378 371.615 88.9557 370.576 89.1348C369.574 89.278 368.607 89.4928 367.676 89.7793C366.745 90.0658 365.814 90.2806 364.883 90.4238C364.417 91.6413 363.934 92.984 363.433 94.4521C362.931 95.9202 362.448 97.3525 361.982 98.749C363.271 98.57 364.453 98.3014 365.527 97.9434C366.602 97.5853 367.64 97.1914 368.643 96.7617C369.645 96.2962 370.63 95.8486 371.597 95.4189C372.563 94.9535 373.566 94.5238 374.604 94.1299C374.712 93.7002 374.945 93.36 375.303 93.1094C375.661 92.8587 376.019 92.626 376.377 92.4111C376.735 92.1605 377.039 91.8919 377.29 91.6055C377.541 91.319 377.63 90.9251 377.559 90.4238ZM373.799 73.6123C371.579 73.5407 369.395 73.7376 367.246 74.2031C365.098 74.6686 363.289 75.349 361.821 76.2441C362.537 76.8529 363.271 77.39 364.023 77.8555C364.811 78.321 365.402 78.9476 365.796 79.7354C367.515 79.055 369.019 78.1956 370.308 77.1572C371.597 76.083 372.76 74.9014 373.799 73.6123ZM418.54 89.8867C418.504 90.3164 418.54 90.7282 418.647 91.1221C418.755 91.516 418.88 91.9098 419.023 92.3037C419.202 92.6618 419.364 93.0378 419.507 93.4316C419.65 93.8255 419.757 94.2194 419.829 94.6133C419.901 95.1146 419.901 95.6696 419.829 96.2783C419.757 96.8512 419.632 97.4242 419.453 97.9971C419.274 98.5342 419.041 99.0355 418.755 99.501C418.468 99.9307 418.128 100.253 417.734 100.468C417.233 101.112 416.624 101.614 415.908 101.972C415.192 102.33 414.53 102.759 413.921 103.261C413.527 103.511 413.079 103.69 412.578 103.798C412.113 103.905 411.629 104.013 411.128 104.12C410.734 104.335 410.269 104.568 409.731 104.818C409.194 105.033 408.639 105.248 408.066 105.463C407.493 105.642 406.921 105.785 406.348 105.893C405.775 105.964 405.273 105.982 404.844 105.946C403.77 106.34 402.713 106.591 401.675 106.698C400.672 106.841 399.491 106.77 398.13 106.483C396.841 106.662 395.641 106.609 394.531 106.322C393.457 106.036 392.49 105.588 391.631 104.979C390.807 104.335 390.073 103.583 389.429 102.724C388.82 101.828 388.319 100.897 387.925 99.9307C387.638 97.8896 387.71 96.0456 388.14 94.3984C388.569 92.7155 389.178 91.1758 389.966 89.7793C390.789 88.347 391.72 87.04 392.759 85.8584C393.797 84.641 394.8 83.4593 395.767 82.3135C395.981 82.3851 396.143 82.3851 396.25 82.3135C396.393 82.2061 396.519 82.0807 396.626 81.9375C396.733 81.7585 396.841 81.5973 396.948 81.4541C397.091 81.3109 397.253 81.2214 397.432 81.1855C397.682 80.6484 398.04 80.2546 398.506 80.0039C399.007 79.7174 399.401 79.3236 399.688 78.8223C400.01 78.7507 400.278 78.6432 400.493 78.5C400.708 78.3568 400.905 78.1956 401.084 78.0166C401.299 77.8376 401.514 77.6764 401.729 77.5332C401.943 77.3542 402.194 77.2288 402.48 77.1572V76.5664C403.125 76.2799 403.59 75.9577 403.877 75.5996C404.199 75.2057 404.575 74.7402 405.005 74.2031C405.327 74.1673 405.578 74.1494 405.757 74.1494C405.972 74.1494 406.276 74.1136 406.67 74.042C406.956 73.5407 407.207 73.1647 407.422 72.9141C407.673 72.6634 408.031 72.3949 408.496 72.1084C408.926 72.3232 409.391 72.4665 409.893 72.5381C410.43 72.6097 410.895 72.8424 411.289 73.2363C411.325 73.5944 411.432 73.8809 411.611 74.0957C411.79 74.2747 411.987 74.4538 412.202 74.6328C412.417 74.776 412.614 74.9372 412.793 75.1162C413.008 75.2952 413.151 75.5459 413.223 75.8682C413.366 75.904 413.455 75.8861 413.491 75.8145C413.563 75.7428 413.67 75.7249 413.813 75.7607C413.921 76.262 414.046 76.6022 414.189 76.7812C414.333 76.9245 414.476 77.2288 414.619 77.6943C414.44 78.0524 414.297 78.4284 414.189 78.8223C414.118 79.1803 413.903 79.4489 413.545 79.6279C413.509 79.8786 413.581 80.0218 413.76 80.0576C413.939 80.0576 414.046 80.1471 414.082 80.3262C414.118 80.6484 414.064 80.8812 413.921 81.0244C414.78 82.4209 415.55 83.9069 416.23 85.4824C416.911 87.0221 417.681 88.4902 418.54 89.8867ZM411.826 94.9893C411.969 94.5954 412.148 94.2731 412.363 94.0225C412.614 93.7718 412.757 93.3958 412.793 92.8945C412.614 92.6081 412.507 92.3932 412.471 92.25C412.435 92.071 412.417 91.8024 412.417 91.4443C411.629 90.3343 410.949 89.1527 410.376 87.8994C409.803 86.6104 409.159 85.4108 408.442 84.3008C408.371 84.444 408.245 84.5872 408.066 84.7305C407.887 84.8737 407.69 84.8379 407.476 84.623C407.404 84.9095 407.279 85.1243 407.1 85.2676C406.921 85.375 406.724 85.4287 406.509 85.4287C406.294 85.3929 406.061 85.3392 405.811 85.2676C405.596 85.1602 405.399 85.0348 405.22 84.8916C404.181 85.7152 403.143 86.5208 402.104 87.3086C401.066 88.0964 400.135 89.0094 399.312 90.0479C399.168 90.1195 399.079 90.1553 399.043 90.1553C399.007 90.1195 398.9 90.1374 398.721 90.209C398.434 90.8893 398.076 91.516 397.646 92.0889C397.253 92.626 396.859 93.181 396.465 93.7539C396.071 94.3268 395.731 94.9355 395.444 95.5801C395.158 96.2246 394.997 96.9766 394.961 97.8359C395.57 98.3372 396.286 98.6416 397.109 98.749C397.933 98.8564 398.774 98.8743 399.634 98.8027C400.529 98.7311 401.388 98.6237 402.212 98.4805C403.071 98.3014 403.859 98.2119 404.575 98.2119C406.079 97.8538 407.368 97.3883 408.442 96.8154C409.517 96.2067 410.645 95.598 411.826 94.9893ZM436.802 91.9277C436.551 92.1426 436.336 92.4111 436.157 92.7334C435.978 93.0199 435.799 93.3242 435.62 93.6465C435.441 94.0404 435.244 94.4163 435.029 94.7744C434.814 95.1325 434.546 95.4548 434.224 95.7412C434.045 96.2783 433.866 96.708 433.687 97.0303C433.507 97.3167 433.221 97.6569 432.827 98.0508C432.469 99.4831 431.628 101.041 430.303 102.724C430.267 103.046 430.16 103.368 429.98 103.69C429.837 103.977 429.676 104.263 429.497 104.55C429.425 104.657 429.354 104.783 429.282 104.926C429.211 105.033 429.157 105.123 429.121 105.194L429.014 105.731C428.835 106.018 428.638 106.269 428.423 106.483C428.208 106.698 428.011 106.895 427.832 107.074C427.76 107.182 427.635 107.325 427.456 107.504L426.65 107.826C424.036 107.468 422.443 106.072 421.87 103.637L421.924 103.1C421.995 102.921 422.049 102.742 422.085 102.562C422.157 102.348 422.228 102.133 422.3 101.918C422.443 101.417 422.604 100.915 422.783 100.414C422.998 99.9128 423.302 99.4652 423.696 99.0713C423.768 98.8206 423.929 98.4268 424.18 97.8896C424.43 97.3167 424.86 96.4753 425.469 95.3652C425.97 94.5059 426.364 93.8255 426.65 93.3242C426.937 92.8229 427.17 92.429 427.349 92.1426C426.991 91.5697 426.561 91.0505 426.06 90.585C425.594 89.6898 425.182 88.8304 424.824 88.0068C424.502 87.1833 424.251 86.4492 424.072 85.8047C424.036 85.3392 423.983 84.9453 423.911 84.623C423.84 84.3008 423.768 83.9606 423.696 83.6025C423.589 83.2087 423.499 82.8148 423.428 82.4209C423.356 82.027 423.32 81.6152 423.32 81.1855C423.141 80.9349 423.034 80.6842 422.998 80.4336L423.105 79.8965C423.213 79.6458 423.231 79.3236 423.159 78.9297C423.088 78.5 422.998 78.0703 422.891 77.6406C422.819 77.2826 422.729 76.8887 422.622 76.459C422.55 76.0293 422.533 75.5996 422.568 75.1699C422.604 74.7402 422.712 74.3464 422.891 73.9883C423.105 73.5944 423.446 73.2542 423.911 72.9678L424.824 72.9141C425.146 73.0931 425.451 73.2721 425.737 73.4512C426.06 73.5944 426.364 73.7555 426.65 73.9346C427.044 74.1136 427.42 74.2926 427.778 74.4717C428.136 74.6507 428.512 74.8835 428.906 75.1699L429.282 75.9219L429.98 76.5127V77.1035C430.016 77.2467 430.034 77.4437 430.034 77.6943C430.034 78.1598 430.106 78.4463 430.249 78.5537L430.464 79.1982C430.464 79.6995 430.518 80.1829 430.625 80.6484C430.732 81.0781 430.84 81.4899 430.947 81.8838C431.055 82.2777 431.162 82.6895 431.27 83.1191C431.377 83.5488 431.395 84.0143 431.323 84.5156C431.538 84.4082 431.717 84.2829 431.86 84.1396C431.932 84.068 432.004 84.0143 432.075 83.9785C432.147 83.9427 432.218 83.889 432.29 83.8174L435.459 79.5205L435.352 78.9834L436.479 77.9092C436.766 77.6227 437.035 77.3542 437.285 77.1035C437.572 76.8529 437.804 76.5843 437.983 76.2979L438.574 75.8682C439.72 74.0778 441.349 72.9678 443.462 72.5381L444.214 72.4307L444.429 73.1289C444.572 73.5228 444.858 73.8809 445.288 74.2031C445.754 74.5254 446.237 74.8298 446.738 75.1162L447.222 75.4385C447.401 75.7965 447.49 76.0651 447.49 76.2441C447.49 76.4232 447.472 76.5843 447.437 76.7275L447.651 77.2646C447.365 78.124 447.007 78.7507 446.577 79.1445C446.183 79.5384 445.789 79.8965 445.396 80.2188C445.073 80.5052 444.769 80.7738 444.482 81.0244C444.232 81.2393 444.035 81.5257 443.892 81.8838L443.516 82.3135C442.764 82.7432 442.28 83.3161 442.065 84.0322L441.904 84.6768H441.26C441.224 84.6768 441.134 84.7484 440.991 84.8916C440.884 84.999 440.705 85.3034 440.454 85.8047C440.203 86.1628 440.024 86.3955 439.917 86.5029C439.81 86.6104 439.72 86.6999 439.648 86.7715C439.613 86.9147 439.559 87.0579 439.487 87.2012C439.451 87.3086 439.398 87.4518 439.326 87.6309C438.861 88.0964 438.574 88.4544 438.467 88.7051C438.359 88.9199 438.234 89.1706 438.091 89.457C437.948 89.7435 437.804 90.0299 437.661 90.3164C437.554 90.5671 437.357 90.8356 437.07 91.1221L436.802 91.9277Z" fill="#4866F5"/>
<path d="M52.834 106.752C52.4759 106.752 51.9209 106.698 51.1689 106.591C50.596 105.982 50.0768 105.159 49.6113 104.12C49.1816 103.046 48.8415 101.918 48.5908 100.736C48.376 99.5189 48.2686 98.3193 48.2686 97.1377C48.3044 95.9202 48.5192 94.846 48.9131 93.915C48.9131 93.8792 49.0742 93.4495 49.3965 92.626C49.7546 91.8024 50.2021 90.764 50.7393 89.5107C51.2764 88.2217 51.8851 86.8073 52.5654 85.2676C53.2458 83.6921 53.9261 82.1523 54.6064 80.6484C55.2868 79.1445 55.9313 77.7839 56.54 76.5664C57.1846 75.3132 57.7396 74.3464 58.2051 73.666C58.5273 73.1647 58.8138 72.6813 59.0645 72.2158C59.3509 71.7503 59.6195 71.3206 59.8701 70.9268C60.264 70.2822 60.6221 69.6914 60.9443 69.1543C61.3024 68.5814 61.6784 68.0801 62.0723 67.6504C62.502 67.1849 62.9674 66.791 63.4688 66.4688C63.9701 66.1107 64.5788 65.8063 65.2949 65.5557C65.7246 65.7347 66.1006 65.9316 66.4229 66.1465C66.7451 66.3255 67.0316 66.5583 67.2822 66.8447L67.4434 67.5967C67.515 67.8473 67.6224 68.0264 67.7656 68.1338C67.9447 68.2054 68.0879 68.2412 68.1953 68.2412C68.6608 68.3486 69.0547 68.474 69.377 68.6172C69.735 68.7246 70.111 68.7962 70.5049 68.832C70.6481 69.0469 70.7734 69.2617 70.8809 69.4766C71.0241 69.6914 71.1673 69.8883 71.3105 70.0674C72.0267 71.1058 72.6175 72.1084 73.083 73.0752C73.5485 74.042 73.5485 75.0983 73.083 76.2441L73.1367 76.835C73.3158 77.0856 73.4053 77.3184 73.4053 77.5332C73.4053 77.748 73.3695 78.0524 73.2979 78.4463C73.262 78.7327 73.2262 79.055 73.1904 79.4131C73.1904 79.7354 73.2441 80.0934 73.3516 80.4873L73.7275 80.917C74.3005 81.2035 74.8555 81.3467 75.3926 81.3467C76.1087 81.3467 76.7533 81.1855 77.3262 80.8633C77.8991 80.541 78.4362 80.2188 78.9375 79.8965C79.3314 79.61 79.6895 79.3773 80.0117 79.1982C80.3698 79.0192 80.71 78.8939 81.0322 78.8223C81.7842 78.1061 82.4645 77.4795 83.0732 76.9424C83.7178 76.3695 84.3802 75.7965 85.0605 75.2236C86.3496 74.1852 87.6029 73.0752 88.8203 71.8936C90.0378 70.6761 91.0046 69.1722 91.7207 67.3818C92.1146 67.1312 92.5622 67.0059 93.0635 67.0059C93.5648 67.0059 94.0661 67.1133 94.5674 67.3281C95.0687 67.5072 95.57 67.722 96.0713 67.9727C96.1787 68.0443 96.2682 68.098 96.3398 68.1338C96.4473 68.1696 96.5547 68.2233 96.6621 68.2949C96.6621 68.6888 96.8232 69.0469 97.1455 69.3691C97.3245 69.5124 97.4499 69.6019 97.5215 69.6377C97.5931 69.6735 97.6647 69.7093 97.7363 69.7451C98.0228 69.9242 98.2555 70.0853 98.4346 70.2285C98.6494 70.3717 98.8105 70.5687 98.918 70.8193C99.2402 71.7861 99.7773 72.5381 100.529 73.0752C100.458 73.4691 100.476 73.863 100.583 74.2568C100.69 74.6149 100.816 74.973 100.959 75.3311C101.031 75.4743 101.084 75.6175 101.12 75.7607C101.156 75.8682 101.21 76.0114 101.281 76.1904L100.1 76.083L100.261 77.2646C100.368 77.8734 100.314 78.5537 100.1 79.3057C99.9206 80.0576 99.7057 80.6484 99.4551 81.0781C99.5267 82.1523 99.5625 83.0117 99.5625 83.6562C99.5625 84.265 99.5267 84.8379 99.4551 85.375C99.3835 85.9121 99.2581 86.4313 99.0791 86.9326C98.9359 87.3981 98.7389 87.8994 98.4883 88.4365C98.6315 91.1579 98.3092 93.6465 97.5215 95.9023C96.7695 98.1582 95.946 100.271 95.0508 102.24C94.9434 102.491 94.8359 102.724 94.7285 102.938C94.6211 103.153 94.5316 103.368 94.46 103.583C94.0661 103.69 93.708 103.816 93.3857 103.959C93.0635 104.102 92.7591 104.263 92.4727 104.442C92.0788 104.693 91.6849 104.908 91.291 105.087C90.8971 105.23 90.4854 105.302 90.0557 105.302C88.3369 104.049 87.4417 101.882 87.3701 98.8027C87.3343 95.7233 87.9967 91.8024 89.3574 87.04C89.6081 86.861 89.7155 86.5924 89.6797 86.2344V85.6436L89.1426 85.5898C88.9635 85.5898 88.8024 85.6077 88.6592 85.6436C88.516 85.6794 88.4085 85.8405 88.3369 86.127C87.1911 86.9505 85.9378 87.8099 84.5771 88.7051C83.2523 89.5645 81.8737 90.3701 80.4414 91.1221C79.0091 91.8382 77.541 92.4469 76.0371 92.9482C74.569 93.4137 73.1367 93.6465 71.7402 93.6465C68.1595 93.6465 65.4561 91.8203 63.6299 88.168L63.1465 87.2012L62.6094 88.0605C62.502 88.2396 62.305 88.5977 62.0186 89.1348C61.7679 89.6361 61.4993 90.2269 61.2129 90.9072C60.9622 91.5876 60.7295 92.2858 60.5146 93.002C60.3356 93.7181 60.2819 94.3447 60.3535 94.8818C59.9238 95.2757 59.4941 95.7233 59.0645 96.2246C58.6706 96.7259 58.3841 97.2988 58.2051 97.9434C58.1335 98.1224 58.1156 98.3014 58.1514 98.4805C58.1872 98.6237 58.2409 98.7848 58.3125 98.9639C58.2767 99.2145 58.2051 99.3936 58.0977 99.501C57.9902 99.6084 57.8649 99.7158 57.7217 99.8232C57.5426 100.002 57.3636 100.199 57.1846 100.414C57.0055 100.593 56.8444 100.808 56.7012 101.059C56.6296 101.273 56.5758 101.506 56.54 101.757C56.5042 101.972 56.4684 102.169 56.4326 102.348C56.4326 102.742 56.3789 103.01 56.2715 103.153C55.9134 103.905 55.5911 104.532 55.3047 105.033C55.054 105.499 54.8034 105.857 54.5527 106.107C54.3021 106.358 54.0335 106.519 53.7471 106.591C53.4964 106.698 53.1921 106.752 52.834 106.752ZM106.008 80.0576C104.504 79.4489 103.251 78.5895 102.248 77.4795C101.281 76.3695 100.493 75.0625 99.8848 73.5586C100.243 72.5918 100.816 71.7861 101.604 71.1416C102.391 70.4613 103.269 69.8883 104.235 69.4229C105.238 68.9574 106.294 68.5814 107.404 68.2949C108.514 68.0085 109.589 67.7578 110.627 67.543C110.842 67.6146 110.949 67.6146 110.949 67.543C110.949 67.4714 111.039 67.5072 111.218 67.6504C112.507 67.2565 113.993 66.8805 115.676 66.5225C117.359 66.1286 119.149 65.9854 121.047 66.0928C121.298 65.9495 121.602 65.8779 121.96 65.8779C122.318 65.8421 122.694 65.8242 123.088 65.8242C123.482 65.8242 123.858 65.8242 124.216 65.8242C124.574 65.7884 124.878 65.7168 125.129 65.6094C125.344 65.86 125.666 66.0212 126.096 66.0928C126.525 66.1286 126.973 66.3076 127.438 66.6299C127.582 66.6657 127.582 66.612 127.438 66.4688C127.295 66.2897 127.313 66.1644 127.492 66.0928C127.958 66.0928 128.369 66.2002 128.728 66.415C129.086 66.6299 129.408 66.8805 129.694 67.167C130.017 67.4176 130.303 67.6504 130.554 67.8652C130.84 68.0801 131.145 68.1875 131.467 68.1875C131.789 68.5814 132.165 68.9574 132.595 69.3154C133.06 69.6377 133.49 69.9779 133.884 70.3359C134.313 70.694 134.654 71.0879 134.904 71.5176C135.191 71.9473 135.334 72.4307 135.334 72.9678C135.298 73.1826 135.37 73.3079 135.549 73.3438C135.728 73.3796 135.853 73.487 135.925 73.666C135.961 74.9909 135.746 76.1367 135.28 77.1035C134.851 78.0703 134.296 78.9655 133.615 79.7891C132.935 80.5768 132.201 81.3288 131.413 82.0449C130.661 82.7611 129.963 83.5309 129.318 84.3545C129.748 84.8916 130.231 85.3929 130.769 85.8584C131.341 86.2881 131.914 86.7178 132.487 87.1475C133.06 87.5771 133.597 88.0426 134.099 88.5439C134.636 89.0094 135.083 89.5465 135.441 90.1553C135.549 90.3701 135.782 90.5133 136.14 90.585C136.247 91.0146 136.39 91.4622 136.569 91.9277C136.784 92.3574 136.981 92.7871 137.16 93.2168C137.339 93.6107 137.447 93.9688 137.482 94.291C137.518 94.6133 137.429 94.8818 137.214 95.0967C137.465 95.2399 137.608 95.4727 137.644 95.7949C137.679 96.0814 137.679 96.3141 137.644 96.4932C136.856 97.46 136.319 98.1403 136.032 98.5342C135.746 98.9281 135.531 99.2145 135.388 99.3936C135.244 99.5726 135.101 99.7337 134.958 99.877C134.815 100.02 134.493 100.307 133.991 100.736C132.093 101.882 130.106 102.921 128.029 103.852C125.988 104.747 123.858 105.355 121.638 105.678C121.459 105.928 121.19 106.125 120.832 106.269C120.51 106.448 120.134 106.591 119.704 106.698C119.274 106.806 118.809 106.895 118.308 106.967C117.842 107.038 117.412 107.11 117.019 107.182C116.84 107.11 116.732 106.985 116.696 106.806C116.696 106.662 116.607 106.555 116.428 106.483C116.392 106.913 116.195 107.128 115.837 107.128C115.515 107.164 115.103 107.092 114.602 106.913C114.1 106.734 113.581 106.483 113.044 106.161C112.507 105.839 112.041 105.535 111.647 105.248C111.468 105.57 111.236 105.91 110.949 106.269C110.699 106.627 110.43 106.877 110.144 107.021C109.642 106.949 109.266 106.895 109.016 106.859C108.801 106.824 108.586 106.913 108.371 107.128C108.085 106.985 107.87 106.824 107.727 106.645C107.583 106.501 107.44 106.34 107.297 106.161C107.154 106.018 106.993 105.893 106.813 105.785C106.634 105.642 106.366 105.517 106.008 105.409C106.079 105.23 106.026 104.962 105.847 104.604C105.668 104.21 105.417 103.977 105.095 103.905C105.274 103.619 105.202 103.261 104.88 102.831C104.558 102.366 104.307 101.846 104.128 101.273C104.164 101.023 104.182 100.772 104.182 100.521C104.217 100.235 104.253 99.9844 104.289 99.7695C104.361 99.5189 104.45 99.304 104.558 99.125C104.665 98.946 104.844 98.8206 105.095 98.749C105.059 98.2835 104.916 97.8359 104.665 97.4062C104.987 97.1556 105.202 96.8512 105.31 96.4932C105.417 96.0993 105.507 95.7054 105.578 95.3115C105.686 94.9176 105.811 94.5417 105.954 94.1836C106.097 93.7897 106.33 93.4674 106.652 93.2168C106.581 93.1094 106.509 93.0199 106.438 92.9482C106.366 92.8766 106.33 92.7513 106.33 92.5723C106.867 91.6771 107.243 90.9251 107.458 90.3164C107.673 89.6719 107.834 89.0632 107.941 88.4902C108.085 87.8815 108.228 87.237 108.371 86.5566C108.514 85.8763 108.801 85.0169 109.23 83.9785C109.195 83.334 109.266 82.7611 109.445 82.2598C109.624 81.7585 109.803 81.2751 109.982 80.8096C110.197 80.3083 110.358 79.7891 110.466 79.252C110.573 78.7148 110.555 78.0882 110.412 77.3721C109.803 77.4437 109.356 77.6585 109.069 78.0166C108.819 78.3747 108.658 78.8581 108.586 79.4668C108.264 79.7533 107.852 79.8965 107.351 79.8965C106.849 79.8607 106.402 79.9144 106.008 80.0576ZM129.641 90.4238C128.28 89.6719 127.027 89.2243 125.881 89.0811C124.771 88.9378 123.697 88.9557 122.658 89.1348C121.656 89.278 120.689 89.4928 119.758 89.7793C118.827 90.0658 117.896 90.2806 116.965 90.4238C116.499 91.6413 116.016 92.984 115.515 94.4521C115.013 95.9202 114.53 97.3525 114.064 98.749C115.354 98.57 116.535 98.3014 117.609 97.9434C118.684 97.5853 119.722 97.1914 120.725 96.7617C121.727 96.2962 122.712 95.8486 123.679 95.4189C124.646 94.9535 125.648 94.5238 126.687 94.1299C126.794 93.7002 127.027 93.36 127.385 93.1094C127.743 92.8587 128.101 92.626 128.459 92.4111C128.817 92.1605 129.121 91.8919 129.372 91.6055C129.623 91.319 129.712 90.9251 129.641 90.4238ZM125.881 73.6123C123.661 73.5407 121.477 73.7376 119.328 74.2031C117.18 74.6686 115.371 75.349 113.903 76.2441C114.619 76.8529 115.354 77.39 116.105 77.8555C116.893 78.321 117.484 78.9476 117.878 79.7354C119.597 79.055 121.101 78.1956 122.39 77.1572C123.679 76.083 124.842 74.9014 125.881 73.6123Z" fill="white"/>
</g>
<defs>
<clipPath id="clip0_2_4">
<rect width="499" height="173" fill="white"/>
</clipPath>
</defs>
</svg>
